<svg width="222" height="210" viewBox="0 0 222 210" fill="none" xmlns="http://www.w3.org/2000/svg">
<path d="M2.41455 195.091V207.959H5.38287C5.22723 206.605 5.22723 205.237 5.38287 203.883C5.66484 202.371 8.88948 198.464 8.79208 195.111L2.41455 195.091Z" fill="#EBEBEB"/>
<path d="M26.1611 195.091V207.959H29.1294C28.9738 206.605 28.9738 205.237 29.1294 203.883C29.4114 202.371 32.6361 198.464 32.5387 195.111L26.1611 195.091Z" fill="#E0E0E0"/>
<path d="M49.4051 195.091V207.959H46.4317C46.5845 206.604 46.5845 205.237 46.4317 203.883C46.1446 202.371 42.925 198.464 43.0173 195.111L49.4051 195.091Z" fill="#EBEBEB"/>
<path d="M69.9527 195.091V207.959H66.9844C67.1372 206.604 67.1372 205.237 66.9844 203.883C66.7024 202.371 63.4778 198.464 63.5752 195.111L69.9527 195.091Z" fill="#E0E0E0"/>
<path d="M71.5111 131.639H0.394531V195.501H71.5111V131.639Z" fill="#F5F5F5"/>
<path d="M52.353 131.639L52.8811 195.501H71.5112V131.639H52.353Z" fill="#E0E0E0"/>
<path d="M49.2513 136.34H3.59351V152.591H49.2513V136.34Z" fill="#EBEBEB"/>
<path d="M49.2513 155.826H3.59351V172.078H49.2513V155.826Z" fill="#EBEBEB"/>
<path d="M49.2513 175.317H3.59351V191.569H49.2513V175.317Z" fill="#EBEBEB"/>
<path d="M21.0961 113.291L19.1274 131.567H44.3607L46.4524 113.291H21.0961Z" fill="#E0E0E0"/>
<path d="M22.1366 114.603L20.2192 130.593H42.9917L44.8322 114.603H22.1366Z" fill="white"/>
<path d="M25.9662 117.294L24.7871 127.907H39.1571L39.8953 117.294H25.9662Z" fill="#EBEBEB"/>
<path d="M45.55 121.16L50.7638 131.639L44.3606 131.567L45.55 121.16Z" fill="#EBEBEB"/>
<path d="M28.0938 145.311C28.0948 145.642 27.9976 145.966 27.8146 146.241C27.6316 146.517 27.3709 146.732 27.0656 146.859C26.7603 146.986 26.4241 147.02 26.0996 146.956C25.7751 146.892 25.4768 146.733 25.2425 146.5C25.0083 146.266 24.8486 145.969 24.7837 145.644C24.7188 145.32 24.7516 144.984 24.878 144.678C25.0043 144.372 25.2185 144.111 25.4934 143.927C25.7684 143.743 26.0917 143.645 26.4225 143.645C26.8649 143.645 27.2892 143.82 27.6025 144.133C27.9157 144.445 28.0924 144.869 28.0938 145.311Z" fill="#E0E0E0"/>
<path d="M28.0938 164.997C28.0938 165.328 27.9958 165.651 27.8121 165.926C27.6285 166.201 27.3675 166.415 27.0621 166.542C26.7567 166.668 26.4206 166.701 26.0965 166.637C25.7723 166.572 25.4745 166.413 25.2407 166.179C25.007 165.945 24.8478 165.648 24.7833 165.324C24.7188 164.999 24.7519 164.663 24.8784 164.358C25.0049 164.053 25.2191 163.791 25.494 163.608C25.7688 163.424 26.092 163.326 26.4225 163.326C26.6422 163.326 26.8598 163.368 27.0629 163.452C27.2659 163.536 27.4505 163.659 27.6058 163.814C27.7611 163.969 27.8842 164.154 27.9679 164.357C28.0517 164.56 28.0945 164.778 28.0938 164.997Z" fill="#E0E0E0"/>
<path d="M28.0938 184.679C28.0938 185.009 27.9958 185.332 27.8121 185.607C27.6285 185.882 27.3675 186.096 27.0621 186.223C26.7567 186.349 26.4206 186.382 26.0965 186.318C25.7723 186.253 25.4745 186.094 25.2407 185.86C25.007 185.627 24.8478 185.329 24.7833 185.005C24.7188 184.68 24.7519 184.344 24.8784 184.039C25.0049 183.734 25.2191 183.473 25.494 183.289C25.7688 183.105 26.092 183.007 26.4225 183.007C26.8658 183.007 27.2909 183.183 27.6043 183.497C27.9177 183.81 28.0938 184.235 28.0938 184.679Z" fill="#E0E0E0"/>
<path d="M183.062 173.764C182.913 174.215 188.188 194.271 188.188 194.271L191.808 193.517L186.83 173.764H183.062Z" fill="#EBEBEB"/>
<path d="M211.109 170.898L203.871 194.271H208.095L215.031 172.559L211.109 170.898Z" fill="#F5F5F5"/>
<path d="M217.743 167.279L209.448 194.271H213.673L221.665 168.94L217.743 167.279Z" fill="#EBEBEB"/>
<path d="M185.625 192.615L189.849 207.241H211.109L215.031 192.615H185.625Z" fill="#E0E0E0"/>
<path d="M196.591 192.615C196.572 192.565 196.557 192.513 196.545 192.461L196.432 192.015C196.334 191.605 196.201 191.026 196.027 190.287L194.566 183.9L189.793 162.598L189.921 162.706H186.199L186.327 162.542C188.219 170.924 189.916 178.435 191.131 183.859C191.725 186.56 192.207 188.739 192.546 190.267C192.7 191.01 192.828 191.589 192.915 192.005C192.951 192.194 192.982 192.343 193.002 192.456C193.01 192.509 193.01 192.562 193.002 192.615C192.984 192.565 192.968 192.513 192.956 192.461C192.925 192.348 192.889 192.2 192.843 192.015C192.741 191.605 192.602 191.026 192.423 190.287C192.069 188.749 191.561 186.591 190.931 183.9C189.685 178.476 187.968 170.975 186.05 162.598L186.009 162.439H190.008L190.034 162.542C191.874 170.924 193.53 178.435 194.725 183.859C195.304 186.56 195.776 188.739 196.104 190.267C196.257 191.01 196.375 191.589 196.462 192.005L196.55 192.456C196.572 192.506 196.586 192.56 196.591 192.615Z" fill="#E0E0E0"/>
<path d="M217.369 207.851C217.369 207.923 168.697 207.984 108.685 207.984C48.6722 207.984 0 207.923 0 207.851C0 207.779 48.662 207.718 108.71 207.718C168.758 207.718 217.369 207.779 217.369 207.851Z" fill="#263238"/>
<path d="M203.373 67.9248C203.256 67.8753 203.134 67.8375 203.009 67.812C202.643 67.7295 202.263 67.7295 201.897 67.812C201.303 67.9647 200.751 68.2484 200.282 68.6425C199.644 69.1952 199.091 69.8397 198.641 70.5547C197.591 72.1645 196.765 74.3894 195.801 76.9835C194.686 79.9457 193.721 82.9623 192.91 86.0218C192.759 86.304 192.557 86.556 192.315 86.7651C192.19 86.8789 192.042 86.9644 191.881 87.0157C191.72 87.067 191.55 87.083 191.382 87.0625C191.053 86.9787 190.755 86.8005 190.526 86.5498C190.285 86.3293 190.059 86.0935 189.834 85.8526C189.389 85.3631 188.915 84.9009 188.414 84.4684C187.93 84.0028 187.286 83.7405 186.614 83.7353C186.279 83.7926 185.958 83.9198 185.675 84.1088C185.391 84.2978 185.151 84.5444 184.969 84.8324C184.605 85.4552 184.409 86.1618 184.4 86.883C184.313 88.3492 184.738 89.8308 184.994 91.3637C185.251 92.8966 185.574 94.4704 185.871 96.0751C186.025 96.88 186.173 97.69 186.327 98.5102L186.558 99.7509C186.628 99.9675 186.652 100.197 186.626 100.423C186.6 100.65 186.526 100.868 186.409 101.063C186.332 101.166 186.226 101.243 186.104 101.284C185.982 101.326 185.851 101.329 185.727 101.294C185.506 101.23 185.299 101.123 185.117 100.981L184.092 100.202C183.394 99.6747 182.669 99.1853 181.918 98.7358C181.167 98.2684 180.347 97.9224 179.488 97.7105C179.064 97.6105 178.621 97.6105 178.196 97.7105C177.773 97.8174 177.4 98.0674 177.14 98.4179C176.647 99.1789 176.405 100.075 176.448 100.981C176.45 101.914 176.541 102.845 176.72 103.76C177.09 105.642 177.613 107.49 178.284 109.286C178.479 109.746 178.628 110.223 178.73 110.712C178.754 110.85 178.75 110.992 178.717 111.129C178.685 111.265 178.624 111.394 178.54 111.506C178.494 111.56 178.445 111.609 178.391 111.655C178.333 111.707 178.265 111.747 178.191 111.773C178.035 111.796 177.876 111.76 177.745 111.67C177.319 111.397 176.923 111.081 176.561 110.727L175.464 109.702C174.746 109.006 173.965 108.378 173.131 107.825C172.716 107.552 172.261 107.345 171.783 107.21C171.556 107.14 171.316 107.118 171.08 107.147C170.844 107.177 170.617 107.256 170.414 107.379C170.018 107.667 169.743 108.09 169.64 108.569C169.517 109.058 169.455 109.561 169.456 110.066C169.46 111.103 169.589 112.135 169.84 113.142C170.347 115.187 171.095 117.164 172.07 119.032C173.041 120.947 174.149 122.789 175.387 124.543C176.007 125.433 176.674 126.289 177.386 127.107C178.073 127.958 178.771 128.803 179.468 129.67V129.701L179.345 129.649L182.605 129.178C183.686 129.049 184.759 128.864 185.82 128.624C187.912 128.154 189.967 127.535 191.972 126.773C193.949 126.042 195.833 125.08 197.585 123.908C198.446 123.338 199.232 122.665 199.928 121.903C200.271 121.53 200.566 121.115 200.805 120.668C201.049 120.245 201.13 119.746 201.03 119.268C200.965 119.039 200.85 118.827 200.696 118.645C200.541 118.464 200.349 118.318 200.133 118.217C199.688 117.999 199.213 117.847 198.723 117.766C197.735 117.616 196.734 117.556 195.735 117.586H194.238C193.723 117.606 193.208 117.574 192.7 117.489C192.542 117.469 192.399 117.388 192.3 117.263C192.262 117.194 192.24 117.117 192.233 117.038C192.225 116.968 192.225 116.898 192.233 116.828C192.249 116.689 192.292 116.554 192.359 116.432C192.427 116.31 192.518 116.202 192.628 116.115C193.032 115.823 193.462 115.571 193.915 115.361C195.621 114.484 197.252 113.467 198.79 112.321C199.535 111.766 200.222 111.138 200.841 110.445C201.481 109.805 201.904 108.98 202.051 108.087C202.094 107.652 201.985 107.215 201.743 106.851C201.498 106.49 201.171 106.191 200.79 105.98C200.016 105.555 199.181 105.255 198.313 105.093C197.456 104.92 196.59 104.795 195.719 104.719L194.427 104.596C194.197 104.582 193.972 104.521 193.766 104.416C193.651 104.357 193.557 104.265 193.496 104.151C193.435 104.038 193.409 103.909 193.423 103.78C193.47 103.558 193.563 103.349 193.696 103.165C193.83 102.981 194 102.828 194.197 102.714L195.222 101.955L197.196 100.453L201.01 97.5567C202.235 96.598 203.543 95.788 204.465 94.6396C204.937 94.1028 205.262 93.4528 205.409 92.753C205.468 92.4167 205.456 92.0716 205.373 91.7403C205.29 91.409 205.138 91.099 204.927 90.8305C204.703 90.5832 204.413 90.4053 204.091 90.3179C203.769 90.2222 203.437 90.1671 203.102 90.1538C202.441 90.1365 201.78 90.1605 201.123 90.2256C200.795 90.2256 200.467 90.2717 200.144 90.2769C199.807 90.3021 199.47 90.229 199.175 90.0667C199.033 89.971 198.914 89.8458 198.826 89.6998C198.737 89.5538 198.681 89.3904 198.662 89.2208C198.624 88.9021 198.643 88.5792 198.718 88.2672C200.186 85.4872 201.512 82.6349 202.691 79.7211C203.717 77.1578 204.604 74.9534 204.922 73.0565C205.077 72.2285 205.112 71.3824 205.024 70.5445C204.958 69.9354 204.752 69.3496 204.424 68.8322C204.226 68.5156 203.955 68.2503 203.635 68.058C203.526 67.9913 203.411 67.9347 203.291 67.8889C203.415 67.9222 203.534 67.9723 203.645 68.0375C203.975 68.2261 204.256 68.4895 204.465 68.8065C204.8 69.3282 205.012 69.9188 205.086 70.5342C205.185 71.3793 205.16 72.2344 205.009 73.0719C204.701 74.9739 203.83 77.1732 202.809 79.7365C201.655 82.6837 200.351 85.5702 198.903 88.3851C198.832 88.6734 198.815 88.9723 198.852 89.2669C198.866 89.412 198.91 89.5524 198.983 89.6788C199.055 89.8052 199.154 89.9147 199.272 90C199.54 90.1416 199.842 90.2038 200.144 90.1794C200.461 90.1794 200.784 90.1487 201.113 90.1231C201.778 90.0559 202.448 90.0302 203.117 90.0462C203.464 90.0599 203.809 90.1168 204.142 90.2153C204.495 90.3092 204.814 90.4991 205.065 90.7639C205.289 91.0512 205.45 91.382 205.538 91.7351C205.626 92.0882 205.64 92.4559 205.578 92.8145C205.429 93.549 205.089 94.2315 204.593 94.7934C203.645 95.9725 202.328 96.7928 201.113 97.7566L197.303 100.658L195.335 102.155L194.335 102.919C194.166 103.032 194.013 103.166 193.879 103.319C193.755 103.465 193.674 103.643 193.643 103.832C193.634 103.917 193.651 104.003 193.693 104.078C193.734 104.153 193.797 104.214 193.874 104.252C194.055 104.34 194.252 104.39 194.453 104.401L195.745 104.524C196.623 104.598 197.496 104.723 198.359 104.898C199.256 105.063 200.122 105.37 200.923 105.805C201.332 106.041 201.682 106.365 201.948 106.754C202.215 107.162 202.338 107.647 202.297 108.133C202.144 109.078 201.702 109.952 201.03 110.635C200.394 111.339 199.69 111.979 198.929 112.547C197.38 113.704 195.739 114.733 194.022 115.623C193.586 115.821 193.171 116.061 192.782 116.341C192.697 116.406 192.626 116.488 192.573 116.581C192.52 116.674 192.486 116.777 192.474 116.884C192.469 116.935 192.469 116.987 192.474 117.038C192.474 117.079 192.474 117.176 192.51 117.171C192.576 117.23 192.658 117.268 192.746 117.279C193.227 117.357 193.715 117.387 194.202 117.371H195.699C196.714 117.334 197.73 117.394 198.734 117.551C199.251 117.631 199.753 117.792 200.22 118.027C200.468 118.146 200.687 118.315 200.864 118.525C201.041 118.734 201.171 118.979 201.246 119.242C201.362 119.781 201.274 120.344 201 120.821C200.752 121.288 200.445 121.72 200.087 122.108C199.378 122.887 198.576 123.576 197.698 124.159C195.931 125.348 194.027 126.32 192.028 127.055C190.008 127.826 187.935 128.449 185.825 128.921C184.761 129.163 183.684 129.348 182.6 129.475L179.335 129.952H179.258L179.212 129.89H179.186L177.104 127.327C176.392 126.508 175.723 125.652 175.1 124.764C173.852 122.997 172.735 121.141 171.757 119.212C170.778 117.323 170.026 115.325 169.517 113.26C169.258 112.239 169.125 111.19 169.122 110.137C169.123 109.609 169.188 109.082 169.317 108.569C169.438 108.031 169.752 107.557 170.199 107.236C170.432 107.091 170.694 106.998 170.966 106.963C171.239 106.928 171.515 106.951 171.778 107.031C172.28 107.173 172.757 107.391 173.193 107.677C174.04 108.237 174.833 108.875 175.561 109.584L176.658 110.609C177.007 110.948 177.389 111.252 177.797 111.516C177.87 111.569 177.958 111.598 178.048 111.599C178.048 111.599 178.125 111.552 178.161 111.527L178.273 111.414C178.335 111.327 178.379 111.229 178.402 111.125C178.425 111.021 178.427 110.914 178.407 110.809C178.309 110.339 178.165 109.881 177.976 109.44C177.302 107.63 176.777 105.768 176.407 103.873C176.225 102.942 176.134 101.996 176.136 101.048C176.095 100.089 176.357 99.1425 176.884 98.341C177.176 97.9519 177.592 97.6735 178.063 97.5515C178.523 97.444 179.002 97.444 179.463 97.5515C180.344 97.7599 181.186 98.1059 181.959 98.5769C182.719 99.0278 183.452 99.5225 184.154 100.058L185.179 100.838C185.332 100.961 185.505 101.057 185.692 101.12C185.774 101.144 185.862 101.142 185.944 101.115C186.026 101.087 186.097 101.035 186.148 100.966C186.249 100.813 186.307 100.636 186.317 100.453C186.322 100.249 186.3 100.046 186.25 99.8483C186.173 99.433 186.102 99.0229 186.025 98.6128C185.871 97.7925 185.722 96.9774 185.574 96.1776C185.281 94.5679 184.989 92.9991 184.707 91.4662C184.425 89.9334 184.031 88.4466 184.118 86.9343C184.133 86.1848 184.341 85.452 184.723 84.8067C184.92 84.4945 185.182 84.2279 185.49 84.0246C185.799 83.8213 186.147 83.686 186.512 83.6276C186.875 83.5978 187.239 83.6706 187.563 83.8378C187.877 83.9904 188.172 84.1816 188.439 84.4069C188.947 84.8449 189.426 85.3141 189.875 85.8116C190.094 86.0508 190.319 86.2815 190.552 86.5037C190.76 86.7247 191.027 86.8827 191.321 86.9599C191.466 86.9761 191.612 86.9612 191.751 86.9161C191.89 86.871 192.018 86.7968 192.126 86.6985C192.35 86.5048 192.538 86.272 192.679 86.0115C193.5 82.9469 194.479 79.9267 195.612 76.963C196.586 74.374 197.426 72.144 198.498 70.5342C198.956 69.8151 199.519 69.1688 200.169 68.6168C200.647 68.2206 201.211 67.9399 201.815 67.7966C202.186 67.7091 202.572 67.7091 202.943 67.7966C203.092 67.8145 203.238 67.8579 203.373 67.9248Z" fill="#263238"/>
<path d="M200.682 74.897C200.673 74.9555 200.656 75.0125 200.631 75.0662L200.456 75.5481C200.287 75.9838 200.051 76.6041 199.754 77.3885C199.128 79.0034 198.242 81.3155 197.144 84.1608L188.629 106.533C185.317 115.249 182.282 123.18 180.037 128.88C178.919 131.731 177.986 134.033 177.351 135.622C177.033 136.401 176.781 137.011 176.602 137.442C176.515 137.642 176.453 137.796 176.402 137.919L176.325 138.072C176.335 138.016 176.352 137.96 176.376 137.908C176.417 137.785 176.479 137.626 176.551 137.426C176.72 136.986 176.956 136.37 177.253 135.581C177.879 133.966 178.765 131.659 179.863 128.814L188.378 106.451C191.69 97.7105 194.72 89.8103 196.97 84.1095C198.088 81.2591 199.021 78.9521 199.656 77.368C199.974 76.5888 200.226 75.9736 200.405 75.5429C200.492 75.3481 200.554 75.1892 200.605 75.0713L200.682 74.897Z" fill="#263238"/>
<path d="M200.959 92.6094C200.554 92.8995 200.125 93.1551 199.677 93.3732L196.54 95.1163C195.309 95.7981 194.192 96.4082 193.366 96.8235C192.932 97.0697 192.473 97.2691 191.997 97.4182C192.406 97.1332 192.834 96.878 193.279 96.6543L196.406 94.8856C197.637 94.2038 198.759 93.6091 199.59 93.2041C200.026 92.9626 200.484 92.7635 200.959 92.6094Z" fill="#263238"/>
<path d="M191.582 97.0903C191.515 97.1211 190.295 94.7936 188.86 91.8919C187.424 88.9903 186.296 86.6115 186.373 86.5756C186.45 86.5397 187.66 88.8723 189.101 91.774C190.541 94.6757 191.649 97.0544 191.582 97.0903Z" fill="#263238"/>
<path d="M187.101 110.742C186.692 110.44 186.314 110.096 185.974 109.717C185.307 109.051 184.436 108.102 183.487 107.005C182.539 105.908 181.77 104.872 181.226 104.103C180.907 103.706 180.63 103.277 180.401 102.822C180.753 103.188 181.078 103.578 181.375 103.991C181.959 104.729 182.764 105.739 183.692 106.831C184.62 107.923 185.481 108.881 186.107 109.584C186.467 109.944 186.799 110.332 187.101 110.742Z" fill="#263238"/>
<path d="M196.478 108.538C196.04 108.713 195.587 108.847 195.124 108.938C194.284 109.148 193.115 109.42 191.823 109.707C190.531 109.994 189.352 110.22 188.501 110.404C188.044 110.519 187.577 110.59 187.106 110.614C187.544 110.441 187.997 110.309 188.46 110.22C189.301 110.009 190.47 109.707 191.767 109.445C193.064 109.184 194.232 108.933 195.083 108.753C195.541 108.639 196.007 108.567 196.478 108.538Z" fill="#263238"/>
<path d="M194.053 121.098C193.484 121.295 192.901 121.451 192.31 121.565C191.223 121.816 189.747 122.149 188.065 122.498C186.384 122.846 184.892 123.154 183.8 123.359C183.215 123.499 182.62 123.593 182.021 123.641C182.589 123.442 183.172 123.286 183.764 123.174C184.846 122.923 186.327 122.59 188.009 122.241C189.69 121.893 191.177 121.585 192.269 121.38C192.855 121.24 193.452 121.146 194.053 121.098Z" fill="#263238"/>
<path d="M182.287 123.498C182.145 123.399 182.015 123.281 181.903 123.149C181.667 122.913 181.339 122.565 180.934 122.124C180.129 121.242 179.047 119.996 177.909 118.576C176.771 117.156 175.792 115.823 175.11 114.844C174.767 114.357 174.5 113.957 174.321 113.675C174.214 113.536 174.127 113.382 174.064 113.219C174.193 113.336 174.306 113.469 174.403 113.613L175.264 114.736C175.982 115.685 176.981 116.992 178.119 118.407C179.257 119.822 180.308 121.088 181.077 121.996C181.513 122.469 181.917 122.971 182.287 123.498Z" fill="#263238"/>
<path d="M177.161 157.841C168.261 150.664 166.969 138.395 168.087 127.522C168.276 125.707 168.204 123.774 169.179 122.236C170.153 120.698 172.255 119.75 173.828 120.627C175.136 121.355 175.612 122.969 176.279 124.318C177.171 126.12 178.553 127.634 180.267 128.686C181.385 129.367 182.795 129.834 183.979 129.28C185.609 128.522 185.943 126.368 186.055 124.559L186.686 114.439C186.799 112.624 186.922 110.778 187.604 109.102C188.285 107.426 189.654 105.913 191.392 105.544C193.13 105.175 195.206 106.323 195.447 108.107C195.464 108.861 195.43 109.614 195.345 110.363C195.345 111.117 195.637 111.973 196.334 112.229C197.032 112.486 197.801 112.029 198.385 111.537C200.379 109.84 201.804 107.574 203.153 105.313C204.501 103.053 205.808 100.735 207.644 98.8589C209.479 96.9826 211.924 95.5625 214.529 95.5933C217.133 95.624 219.778 97.4132 220.26 100.002C220.742 102.591 219.076 105.088 217.312 107.041C214.694 109.945 211.669 112.454 208.331 114.49C207.679 114.784 207.14 115.28 206.793 115.905C206.316 117.084 207.377 118.361 208.541 118.843C209.858 119.381 211.335 119.355 212.734 119.606C214.134 119.858 215.621 120.596 216.062 121.965C216.677 123.867 214.995 125.697 213.385 126.866C210.177 129.198 206.593 130.963 202.789 132.085C201.42 132.479 199.99 132.807 198.851 133.669C197.713 134.53 196.955 136.114 197.519 137.432C198.082 138.749 199.718 139.277 201.107 139.113C202.497 138.949 203.819 138.278 205.183 137.867C207.746 137.098 210.935 137.493 212.36 139.749C213.309 141.236 213.268 143.209 212.622 144.876C211.901 146.493 210.864 147.951 209.571 149.161C205.306 153.626 199.931 156.878 193.997 158.584C188.091 160.189 182.718 160.363 177.12 157.872" fill="#5DA9E7"/>
<g opacity="0.1">
<path d="M177.161 157.841C168.261 150.664 166.969 138.395 168.087 127.522C168.276 125.707 168.204 123.774 169.179 122.236C170.153 120.698 172.255 119.75 173.828 120.627C175.136 121.355 175.612 122.969 176.279 124.318C177.171 126.12 178.553 127.634 180.267 128.686C181.385 129.367 182.795 129.834 183.979 129.28C185.609 128.522 185.943 126.368 186.055 124.559L186.686 114.439C186.799 112.624 186.922 110.778 187.604 109.102C188.285 107.426 189.654 105.913 191.392 105.544C193.13 105.175 195.206 106.323 195.447 108.107C195.464 108.861 195.43 109.614 195.345 110.363C195.345 111.117 195.637 111.973 196.334 112.229C197.032 112.486 197.801 112.029 198.385 111.537C200.379 109.84 201.804 107.574 203.153 105.313C204.501 103.053 205.808 100.735 207.644 98.8589C209.479 96.9826 211.924 95.5625 214.529 95.5933C217.133 95.624 219.778 97.4132 220.26 100.002C220.742 102.591 219.076 105.088 217.312 107.041C214.694 109.945 211.669 112.454 208.331 114.49C207.679 114.784 207.14 115.28 206.793 115.905C206.316 117.084 207.377 118.361 208.541 118.843C209.858 119.381 211.335 119.355 212.734 119.606C214.134 119.858 215.621 120.596 216.062 121.965C216.677 123.867 214.995 125.697 213.385 126.866C210.177 129.198 206.593 130.963 202.789 132.085C201.42 132.479 199.99 132.807 198.851 133.669C197.713 134.53 196.955 136.114 197.519 137.432C198.082 138.749 199.718 139.277 201.107 139.113C202.497 138.949 203.819 138.278 205.183 137.867C207.746 137.098 210.935 137.493 212.36 139.749C213.309 141.236 213.268 143.209 212.622 144.876C211.901 146.493 210.864 147.951 209.571 149.161C205.306 153.626 199.931 156.878 193.997 158.584C188.091 160.189 182.718 160.363 177.12 157.872" fill="black"/>
</g>
<path d="M176.464 165.921C177.318 160.902 178.65 155.977 180.442 151.212C182.66 145.4 185.208 139.719 188.075 134.197L190.306 129.84C191.044 128.409 191.772 126.994 192.572 125.651C194.111 123.08 195.79 120.595 197.601 118.207C199.318 115.916 201.025 113.803 202.64 111.84C204.255 109.876 205.803 108.082 207.28 106.503C209.599 104 212.112 101.684 214.795 99.577C215.744 98.8336 216.497 98.28 217.015 97.9109L217.605 97.4956C217.67 97.4461 217.738 97.4016 217.81 97.3623C217.756 97.4236 217.694 97.4771 217.625 97.5212L217.056 97.9672C216.544 98.3517 215.811 98.9208 214.877 99.6847C212.232 101.823 209.75 104.157 207.454 106.667C205.993 108.251 204.46 110.056 202.84 112.019C201.22 113.983 199.533 116.121 197.831 118.397C196.03 120.777 194.363 123.255 192.838 125.82C192.043 127.158 191.3 128.563 190.587 129.993L188.357 134.351C185.498 139.862 182.946 145.527 180.714 151.32C178.916 156.064 177.565 160.966 176.679 165.962" fill="#263238"/>
<path d="M192.669 125.635C192.597 125.379 192.554 125.116 192.541 124.851C192.484 124.338 192.418 123.61 192.351 122.698C192.223 120.883 192.125 118.361 192.028 115.587C191.931 112.814 191.797 110.296 191.638 108.482C191.561 107.579 191.495 106.846 191.438 106.339C191.392 106.076 191.377 105.81 191.392 105.544C191.476 105.796 191.534 106.055 191.567 106.318C191.659 106.831 191.766 107.554 191.874 108.461C192.095 110.271 192.264 112.788 192.387 115.572C192.51 118.355 192.556 120.791 192.612 122.687C192.648 123.544 192.674 124.261 192.7 124.841C192.715 125.106 192.704 125.372 192.669 125.635Z" fill="#263238"/>
<path d="M216.231 122.882C215.921 122.931 215.606 122.948 215.293 122.934C214.693 122.934 213.827 122.934 212.729 123.005C210.587 123.093 207.603 123.308 204.368 123.697C201.133 124.087 198.18 124.564 196.068 124.974C195.012 125.169 194.161 125.353 193.571 125.487C193.269 125.567 192.96 125.62 192.648 125.646C192.937 125.524 193.235 125.428 193.54 125.358C194.12 125.194 194.966 124.979 196.022 124.748C198.124 124.282 201.061 123.764 204.327 123.369C207.114 123.029 209.917 122.832 212.724 122.78C213.801 122.78 214.672 122.78 215.288 122.811C215.604 122.806 215.919 122.831 216.231 122.882Z" fill="#263238"/>
<path d="M180.76 150.792C180.699 150.702 180.652 150.604 180.621 150.5L180.278 149.628C179.986 148.875 179.591 147.767 179.124 146.399C178.186 143.656 177.007 139.826 175.761 135.586C174.515 131.347 173.377 127.507 172.496 124.749C172.065 123.406 171.706 122.303 171.445 121.483L171.163 120.596C171.123 120.494 171.097 120.387 171.086 120.278C171.144 120.369 171.19 120.468 171.224 120.571C171.316 120.806 171.429 121.083 171.562 121.442C171.855 122.196 172.249 123.303 172.721 124.672C173.659 127.415 174.838 131.244 176.079 135.489C177.32 139.734 178.468 143.563 179.35 146.322C179.78 147.665 180.134 148.767 180.375 149.587L180.657 150.474C180.706 150.575 180.74 150.682 180.76 150.792Z" fill="#263238"/>
<path d="M212.36 142.948C212.261 143.001 212.154 143.037 212.042 143.055L211.125 143.296L207.741 144.142C204.881 144.855 200.948 145.885 196.601 147.034C192.254 148.182 188.306 149.177 185.43 149.833C183.995 150.161 182.831 150.417 182.021 150.576L181.088 150.756C180.981 150.783 180.87 150.795 180.76 150.791C180.859 150.744 180.964 150.71 181.072 150.689L181.995 150.448L185.379 149.602C188.234 148.89 192.172 147.854 196.519 146.706C200.866 145.557 204.814 144.563 207.685 143.906C209.12 143.578 210.289 143.327 211.094 143.168L212.027 142.989C212.136 142.962 212.248 142.948 212.36 142.948Z" fill="#263238"/>
<path d="M179.232 16.3203H54.906V186.678H179.232V16.3203Z" fill="#455A64"/>
<path d="M174.315 176.548H151.292H65.2617V23.2051H174.315V157.472V176.548Z" fill="#E0E0E0"/>
<path d="M172.593 173.703H149.774H64.5186V21.1802H172.593V154.729V173.703Z" fill="#EBEBEB"/>
<path d="M160.981 161.835L148.534 171.97H62.5037V21.5649H171.557V153.258L160.981 161.835Z" fill="#FAFAFA"/>
<path d="M160.981 161.819C160.981 161.819 161.202 161.629 161.648 161.265L163.642 159.635L171.532 153.211V153.242C171.532 131.608 171.491 83.52 171.455 21.5493L171.573 21.6723H63.4677H62.5193L62.6526 21.5391C62.6526 78.0858 62.6526 130.249 62.6218 171.944L62.5193 171.837L148.549 171.898H148.519L157.869 164.316L160.212 162.424C160.725 162.004 160.997 161.799 160.997 161.799L160.228 162.439L157.885 164.382L148.565 172.001L62.5039 172.072H62.3962V171.965C62.3962 130.27 62.3962 78.1063 62.3706 21.5596V21.4263H63.4523H171.558H171.681V21.5442C171.645 83.5354 171.614 131.603 171.604 153.237L163.683 159.63L161.679 161.306L160.981 161.819Z" fill="#263238"/>
<path d="M102.317 11.0552H132.128C134.052 11.0552 135.898 11.8195 137.258 13.1799C138.618 14.5403 139.383 16.3854 139.383 18.3094V26.353H94.7502V18.617C94.7516 16.611 95.5494 14.6876 96.9684 13.2697C98.3873 11.8517 100.311 11.0552 102.317 11.0552Z" fill="#A8BC35"/>
<path d="M105.685 11.0551L104.055 2.80127H129.755L128.324 11.0551H105.685Z" fill="#A8BC35"/>
<path d="M92.2791 63.9007H73.9104V45.5269H92.2791V63.9007ZM74.4231 63.388H91.7665V46.0395H74.4231V63.388Z" fill="#5DA9E7"/>
<path d="M157.208 49.9663C157.208 50.0381 144.417 50.0996 128.647 50.0996C112.878 50.0996 100.082 50.0381 100.082 49.9663C100.082 49.8945 112.868 49.833 128.647 49.833C144.427 49.833 157.208 49.8894 157.208 49.9663Z" fill="#263238"/>
<path d="M157.208 53.7803C157.208 53.8572 144.417 53.9136 128.647 53.9136C112.878 53.9136 100.082 53.8572 100.082 53.7803C100.082 53.7034 112.868 53.647 128.647 53.647C144.427 53.647 157.208 53.7085 157.208 53.7803Z" fill="#263238"/>
<path d="M157.208 57.6001C157.208 57.6719 144.417 57.7334 128.647 57.7334C112.878 57.7334 100.082 57.6719 100.082 57.6001C100.082 57.5283 112.868 57.4668 128.647 57.4668C144.427 57.4668 157.208 57.5283 157.208 57.6001Z" fill="#263238"/>
<path d="M157.208 61.4194C157.208 61.4912 144.417 61.5527 128.647 61.5527C112.878 61.5527 100.082 61.4912 100.082 61.4194C100.082 61.3477 112.868 61.2861 128.647 61.2861C144.427 61.2861 157.208 61.3374 157.208 61.4194Z" fill="#263238"/>
<path d="M92.2791 92.2147H73.9104V73.8408H92.2791V92.2147ZM74.4231 91.702H91.7665V74.3535H74.4231V91.702Z" fill="#5DA9E7"/>
<path d="M77.5605 83.4074L80.0008 80.7877L84.0662 84.038L93.3711 75.0049L95.6012 77.6348L83.8868 89.1903L77.5605 83.4074Z" fill="#5DA9E7"/>
<path d="M157.208 78.2808C157.208 78.3525 144.417 78.414 128.647 78.414C112.878 78.414 100.082 78.3525 100.082 78.2808C100.082 78.209 112.868 78.1475 128.647 78.1475C144.427 78.1475 157.208 78.209 157.208 78.2808Z" fill="#263238"/>
<path d="M157.208 82.1001C157.208 82.1719 144.417 82.2334 128.647 82.2334C112.878 82.2334 100.082 82.1719 100.082 82.1001C100.082 82.0283 112.868 81.9668 128.647 81.9668C144.427 81.9668 157.208 82.0232 157.208 82.1001Z" fill="#263238"/>
<path d="M157.208 85.9141C157.208 85.991 144.417 86.0473 128.647 86.0473C112.878 86.0473 100.082 85.991 100.082 85.9141C100.082 85.8372 112.868 85.7808 128.647 85.7808C144.427 85.7808 157.208 85.8423 157.208 85.9141Z" fill="#263238"/>
<path d="M157.208 89.7339C157.208 89.8056 144.417 89.8672 128.647 89.8672C112.878 89.8672 100.082 89.8056 100.082 89.7339C100.082 89.6621 112.868 89.6006 128.647 89.6006C144.427 89.6006 157.208 89.6621 157.208 89.7339Z" fill="#263238"/>
<path d="M92.2791 119.617H73.9104V101.243H92.2791V119.617ZM74.4231 119.104H91.7665V101.756H74.4231V119.104Z" fill="#5DA9E7"/>
<path d="M77.5605 110.809L80.0008 108.19L84.0662 111.44L93.3711 102.407L95.6012 105.037L83.8868 116.592L77.5605 110.809Z" fill="#5DA9E7"/>
<path d="M157.208 105.683C157.208 105.754 144.417 105.816 128.647 105.816C112.878 105.816 100.082 105.754 100.082 105.683C100.082 105.611 112.868 105.549 128.647 105.549C144.427 105.549 157.208 105.606 157.208 105.683Z" fill="#263238"/>
<path d="M157.208 109.497C157.208 109.573 144.417 109.63 128.647 109.63C112.878 109.63 100.082 109.573 100.082 109.497C100.082 109.42 112.868 109.363 128.647 109.363C144.427 109.363 157.208 109.425 157.208 109.497Z" fill="#263238"/>
<path d="M157.208 113.316C157.208 113.393 144.417 113.45 128.647 113.45C112.878 113.45 100.082 113.393 100.082 113.316C100.082 113.24 112.868 113.183 128.647 113.183C144.427 113.183 157.208 113.245 157.208 113.316Z" fill="#263238"/>
<path d="M157.208 117.135C157.208 117.207 144.417 117.269 128.647 117.269C112.878 117.269 100.082 117.207 100.082 117.135C100.082 117.063 112.868 117.002 128.647 117.002C144.427 117.002 157.208 117.063 157.208 117.135Z" fill="#263238"/>
<path d="M92.2791 146.075H73.9104V127.701H92.2791V146.075ZM74.4231 145.562H91.7665V128.214H74.4231V145.562Z" fill="#5DA9E7"/>
<path d="M77.5605 137.268L80.0008 134.648L84.0662 137.898L93.3711 128.865L95.6012 131.49L83.8868 143.045L77.5605 137.268Z" fill="#5DA9E7"/>
<path d="M157.208 132.136C157.208 132.213 144.417 132.27 128.647 132.27C112.878 132.27 100.082 132.213 100.082 132.136C100.082 132.059 112.868 132.003 128.647 132.003C144.427 132.003 157.208 132.085 157.208 132.136Z" fill="#263238"/>
<path d="M157.208 135.955C157.208 136.027 144.417 136.088 128.647 136.088C112.878 136.088 100.082 136.027 100.082 135.955C100.082 135.883 112.868 135.822 128.647 135.822C144.427 135.822 157.208 135.883 157.208 135.955Z" fill="#263238"/>
<path d="M157.208 139.774C157.208 139.846 144.417 139.908 128.647 139.908C112.878 139.908 100.082 139.846 100.082 139.774C100.082 139.703 112.868 139.641 128.647 139.641C144.427 139.641 157.208 139.698 157.208 139.774Z" fill="#263238"/>
<path d="M157.208 143.589C157.208 143.666 144.417 143.722 128.647 143.722C112.878 143.722 100.082 143.666 100.082 143.589C100.082 143.512 112.868 143.456 128.647 143.456C144.427 143.456 157.208 143.517 157.208 143.589Z" fill="#263238"/>
<path d="M151.953 147.07L139.998 171.831H148.534L151.953 147.07Z" fill="#E0E0E0"/>
<path d="M148.534 171.97L151.953 147.208L171.557 153.258L148.534 171.97Z" fill="#FAFAFA"/>
<path d="M148.534 171.97L155.127 166.541L171.475 153.155L171.522 153.381L163.949 151.053L151.938 147.326L152.097 147.224C151.071 154.401 150.195 160.579 149.574 164.957C148.954 169.217 148.636 171.416 148.549 171.97C148.547 171.933 148.547 171.895 148.549 171.857L148.595 171.519C148.636 171.196 148.693 170.745 148.77 170.171C148.928 168.966 149.154 167.238 149.441 165.044C150.036 160.63 150.866 154.422 151.835 147.167V147.024L151.974 147.065L164.016 150.777L171.583 153.114L171.819 153.186L171.629 153.34C165.011 158.677 159.223 163.342 155.08 166.669L150.246 170.55L148.954 171.575L148.626 171.837L148.534 171.97Z" fill="#263238"/>
<g opacity="0.3">
<path d="M127.976 2.80127L126.561 11.0551H128.325L129.755 2.80127H127.504" fill="black"/>
</g>
<path d="M52.7014 89.8518C53.3195 89.8984 53.9407 89.82 54.5278 89.6213C55.1149 89.4226 55.656 89.1076 56.1187 88.6951C56.5814 88.2826 56.9562 87.7812 57.2209 87.2207C57.4855 86.6601 57.6345 86.052 57.6589 85.4327C57.7563 82.9206 57.8434 80.3829 57.8434 80.3829C57.8434 80.3829 61.6474 80.0292 61.9447 76.2816C62.2421 72.534 62.0934 63.829 62.0934 63.829C60.0082 62.777 57.6797 62.3011 55.3489 62.4508C53.0181 62.6004 50.7696 63.37 48.8359 64.6801L49.0666 77.9273V85.0584C49.0718 87.4269 50.3175 89.6724 52.7014 89.8518Z" fill="#FFBE9D"/>
<path d="M58.1717 71.6672C57.8939 71.2678 57.4756 70.9879 57.0005 70.8834C56.5253 70.7788 56.0282 70.8573 55.6084 71.1032C55.1823 71.3993 54.8752 71.837 54.7419 72.3384C54.6086 72.8398 54.6577 73.3723 54.8804 73.8408C55.0745 74.1886 55.3388 74.4921 55.6566 74.7322C55.9743 74.9722 56.3385 75.1436 56.726 75.2353C57.0696 75.31 57.3742 75.5074 57.5827 75.7905C57.7913 76.0736 57.8895 76.423 57.859 76.7733C57.7012 77.7628 57.2389 78.6785 56.5363 79.393C55.3751 80.5747 53.8294 81.302 52.1787 81.4436C50.5741 81.6333 48.7387 81.3001 47.8057 79.9825C47.1238 79.0239 47.0777 77.7678 47.0521 76.5938C46.994 73.8186 46.9359 71.0434 46.8778 68.2682C46.8174 67.2679 46.8811 66.264 47.0675 65.2794C47.2638 64.2862 47.8277 63.4038 48.6464 62.8083C49.5641 62.2034 50.7227 62.1521 51.7634 61.8189C53.0707 61.3934 54.1781 60.5321 55.3982 59.9067C56.6184 59.2812 58.1102 58.907 59.3355 59.5222C60.2173 59.9631 60.8068 60.8397 61.6578 61.3267C62.878 62.0188 64.5339 61.8394 65.1234 63.6542C65.331 64.2748 65.331 64.9459 65.1234 65.5665C64.2981 68.0016 61.2836 68.9859 59.1099 67.935C59.0689 68.3451 59.4739 69.2628 59.0381 70.5649C58.8997 70.9853 58.8536 71.6159 58.2025 71.6313" fill="#263238"/>
<path d="M47.7799 63.9007C48.3774 62.7101 48.7856 61.4336 48.9898 60.1172C49.0865 59.4579 49.0299 58.7852 48.8246 58.1513C48.6192 57.5174 48.2705 56.9393 47.8056 56.462C47.1193 55.8661 46.2325 55.5528 45.3243 55.5853C44.4615 55.6344 43.6349 55.9489 42.9577 56.4858C42.2804 57.0226 41.7856 57.7556 41.5408 58.5844C41.3296 59.42 41.3623 60.2987 41.6348 61.1164C41.9074 61.9341 42.4085 62.6565 43.0788 63.1984C43.7642 63.7248 44.5766 64.0608 45.4336 64.1725C46.2906 64.2841 47.162 64.1674 47.9594 63.8341" fill="#263238"/>
<path d="M48.5182 62.5421C48.4905 63.0023 48.2924 63.4358 47.9626 63.758C47.6328 64.0802 47.1949 64.2681 46.7341 64.2851C46.7341 64.2082 47.2878 64.0595 47.7595 63.5674C48.2311 63.0752 48.4464 62.5216 48.5182 62.5421Z" fill="#5DA9E7"/>
<path d="M47.2828 63.4646C46.9889 63.7726 46.6415 64.0245 46.2574 64.208C45.847 64.4419 45.3863 64.5738 44.9143 64.5925C44.6145 64.6087 44.3152 64.5529 44.0414 64.4298C43.7676 64.3067 43.5273 64.1199 43.3404 63.885C43.175 63.6377 43.0647 63.3577 43.0169 63.0641C42.9692 62.7704 42.9851 62.4699 43.0636 62.183C43.1825 61.7275 43.3975 61.3028 43.6941 60.9372C43.9396 60.5907 44.2411 60.2875 44.5862 60.04C44.358 60.3944 44.1116 60.7366 43.8479 61.0654C43.5906 61.4224 43.406 61.8265 43.3045 62.2547C43.2405 62.5072 43.2298 62.7703 43.2731 63.0271C43.3163 63.284 43.4126 63.529 43.5557 63.7466C43.7196 63.9467 43.9274 64.1063 44.1631 64.213C44.3987 64.3197 44.6558 64.3706 44.9143 64.3618C45.3524 64.3548 45.7833 64.2497 46.1754 64.0542C46.8419 63.7107 47.2571 63.4236 47.2828 63.4646Z" fill="#263238"/>
<path d="M40.8847 67.7149C40.962 67.8451 41.0223 67.9846 41.0642 68.1302C41.1971 68.5143 41.3853 68.877 41.623 69.2068C41.781 69.4452 42.0024 69.6349 42.2623 69.7545C42.5223 69.874 42.8104 69.9187 43.0943 69.8835C43.4341 69.7875 43.7434 69.6054 43.9922 69.3548C44.241 69.1042 44.4208 68.7936 44.5144 68.4531C44.6985 67.7361 44.8271 67.006 44.8989 66.2692C44.9713 65.6374 45.22 65.0386 45.6166 64.5415C45.9007 64.2145 46.2876 63.9939 46.7137 63.9161C46.8678 63.8784 47.0301 63.8928 47.1751 63.9571C47.1751 63.9571 47.0059 63.9571 46.7342 64.0186C46.3492 64.125 46.008 64.3513 45.7601 64.6646C45.4108 65.1463 45.1966 65.7127 45.1398 66.3051C45.0807 67.0597 44.9554 67.8076 44.7656 68.5403C44.6598 68.9249 44.4535 69.2744 44.1679 69.5528C43.8822 69.8312 43.5276 70.0285 43.1404 70.1244C42.7864 70.181 42.4237 70.1121 42.1151 69.9296C41.8591 69.7742 41.6389 69.5663 41.4692 69.3195C41.2341 68.9669 41.0607 68.5768 40.9565 68.166C40.9039 68.0217 40.8795 67.8685 40.8847 67.7149Z" fill="#263238"/>
<path d="M39.0341 99.3408C39.0341 99.3408 37.1116 113.398 39.0341 115.182C40.9566 116.966 42.7971 116.371 42.7971 116.371L46.4524 113.296L47.1701 99.3203L39.0341 99.3408Z" fill="#FFBE9D"/>
<path d="M78.7397 59.8816L81.18 57.2618L85.2454 60.5121L94.5503 51.479L96.7804 54.109L85.066 65.6644L78.7397 59.8816Z" fill="#5DA9E7"/>
<path d="M90.2028 60.5938L86.6654 62.8648C86.5065 61.4653 85.4402 60.0811 85.4914 60.7834C85.5427 61.4858 85.4914 65.1308 85.4914 65.1308L79.1908 78.4037C78.3346 80.5056 76.5967 81.8283 75.2997 82.141L69.3989 83.8943L71.7008 91.6816L79.9034 88.9645C80.9504 88.6176 81.9015 88.0302 82.6805 87.2495C83.4595 86.4687 84.0447 85.5162 84.3892 84.4685L90.0285 67.284C90.403 66.1771 90.7044 65.0468 90.9308 63.9004C91.1768 62.4598 90.2028 60.5938 90.2028 60.5938Z" fill="#FFBE9D"/>
<path d="M61.2219 205.765L61.1297 201.833L53.7576 201.95L53.8242 207.708L54.2856 207.733C56.3363 207.81 64.6465 207.995 66 207.564C67.5072 207.077 61.2219 205.765 61.2219 205.765Z" fill="#5DA9E7"/>
<g opacity="0.5">
<path d="M56.5003 207.611C56.3761 206.997 56.0314 206.45 55.5314 206.073C55.039 205.689 54.4201 205.506 53.7986 205.56L53.8293 207.611H56.5003Z" fill="white"/>
</g>
<g opacity="0.4">
<path d="M64.2723 206.518C64.2723 206.518 66.4767 207.113 66.2102 207.482C65.9436 207.851 57.5256 207.995 53.8037 207.707V207.543L63.6263 207.477C63.6263 207.477 63.8673 206.544 64.2723 206.518Z" fill="white"/>
</g>
<path d="M53.7168 207.539H53.845H54.2089L55.5521 207.574C56.6851 207.6 58.2487 207.61 59.9764 207.574C61.7041 207.539 63.2728 207.492 64.4007 207.436L65.7439 207.359L66.1079 207.333H66.2309H66.1027H65.7387L64.4007 207.385C63.2677 207.421 61.7041 207.472 59.9764 207.498C58.2487 207.523 56.6851 207.498 55.5521 207.498H54.2141H53.7014L53.7168 207.539Z" fill="#263238"/>
<path d="M63.6571 207.59C63.7104 207.367 63.7914 207.151 63.898 206.949C64.0271 206.762 64.1767 206.59 64.344 206.436C64.1259 206.539 63.9436 206.704 63.8211 206.912C63.6986 207.12 63.6414 207.359 63.6571 207.6V207.59Z" fill="#263238"/>
<path d="M61.463 206.518C61.463 206.518 61.586 206.405 61.6937 206.236C61.8013 206.067 61.8629 205.913 61.8423 205.903C61.8218 205.893 61.7193 206.016 61.6168 206.185C61.5142 206.354 61.4425 206.508 61.463 206.518Z" fill="#263238"/>
<path d="M60.8632 206.216C60.8632 206.216 60.9914 206.154 61.1195 206.036C61.2477 205.918 61.3297 205.811 61.3144 205.795C61.299 205.78 61.1811 205.857 61.058 205.97C60.935 206.083 60.8427 206.195 60.8632 206.216Z" fill="#263238"/>
<path d="M60.4734 205.524C60.5963 205.568 60.7283 205.582 60.8579 205.565C60.9879 205.58 61.1196 205.564 61.2424 205.518C61.1183 205.479 60.9875 205.465 60.8579 205.477C60.7279 205.463 60.5963 205.479 60.4734 205.524Z" fill="#263238"/>
<path d="M60.3352 205.037C60.4646 205.116 60.614 205.157 60.7658 205.155C60.9178 205.176 61.0729 205.153 61.2119 205.088C61.0652 205.074 60.9176 205.074 60.771 205.088C60.6276 205.057 60.4817 205.04 60.3352 205.037Z" fill="#263238"/>
<path d="M61.709 205.872C61.8649 205.901 62.0247 205.901 62.1806 205.872C62.3548 205.849 62.5265 205.81 62.6933 205.755C62.7929 205.723 62.8891 205.682 62.9804 205.631C63.0093 205.616 63.0347 205.595 63.055 205.57C63.0753 205.544 63.09 205.514 63.0983 205.483C63.1043 205.447 63.1003 205.411 63.0868 205.377C63.0732 205.344 63.0506 205.314 63.0214 205.293C62.8388 205.209 62.6326 205.189 62.4374 205.239C62.2423 205.288 62.0702 205.403 61.9499 205.565C61.8809 205.661 61.8305 205.768 61.8013 205.883C61.7923 205.925 61.7923 205.969 61.8013 206.011C61.8503 205.866 61.9212 205.729 62.0115 205.606C62.1172 205.48 62.2556 205.386 62.4113 205.334C62.5977 205.269 62.802 205.281 62.9804 205.365C63.0522 205.421 63.0265 205.508 62.9445 205.56C62.8596 205.607 62.7703 205.647 62.6779 205.678C62.5108 205.735 62.3394 205.78 62.1653 205.811C61.8833 205.857 61.709 205.857 61.709 205.872Z" fill="#263238"/>
<path d="M61.827 205.908C61.8847 205.809 61.903 205.692 61.8783 205.58C61.8589 205.456 61.8116 205.339 61.7399 205.236C61.6993 205.167 61.6418 205.109 61.5728 205.068C61.5038 205.026 61.4254 205.003 61.3451 205C61.3211 205.005 61.2983 205.015 61.2781 205.029C61.2578 205.042 61.2405 205.06 61.2272 205.081C61.2138 205.101 61.2047 205.124 61.2003 205.148C61.1959 205.172 61.1963 205.197 61.2016 205.221C61.213 205.296 61.241 205.368 61.2836 205.431C61.3459 205.536 61.4236 205.631 61.5143 205.713C61.5874 205.798 61.6809 205.863 61.786 205.903C61.786 205.903 61.6937 205.821 61.5604 205.672C61.4837 205.585 61.415 205.49 61.3554 205.39C61.2887 205.293 61.2426 205.113 61.3554 205.088C61.4681 205.062 61.5963 205.19 61.6681 205.282C61.7367 205.374 61.7856 205.479 61.8116 205.59C61.8258 205.695 61.8309 205.802 61.827 205.908Z" fill="#263238"/>
<path d="M53.8396 205.519C53.8396 205.519 54.0498 205.519 54.383 205.519C54.8177 205.56 55.2318 205.723 55.5775 205.99C55.9232 206.257 56.1862 206.616 56.3363 207.026C56.4542 207.339 56.4696 207.538 56.4849 207.538C56.495 207.489 56.495 207.439 56.4849 207.39C56.4682 207.256 56.439 207.124 56.3978 206.995C56.2556 206.567 55.988 206.191 55.6296 205.917C55.2712 205.643 54.8387 205.482 54.3882 205.457C54.2536 205.442 54.1177 205.442 53.9831 205.457C53.9317 205.468 53.8829 205.489 53.8396 205.519Z" fill="#263238"/>
<path d="M54.5573 202.443C54.5115 202.946 54.4978 203.451 54.5163 203.955C54.4999 204.468 54.5153 204.982 54.5624 205.493C54.6091 204.982 54.6228 204.468 54.6034 203.955C54.6158 203.451 54.6004 202.946 54.5573 202.443Z" fill="#263238"/>
<path d="M57.4128 206.877C57.7685 206.951 58.1318 206.98 58.4946 206.965C58.8564 206.98 59.2187 206.945 59.5712 206.862C59.5712 206.836 59.0585 206.862 58.4946 206.862C57.9306 206.862 57.418 206.852 57.4128 206.877Z" fill="#263238"/>
<path d="M55.9722 206.893C55.9722 206.893 56.0132 206.995 56.0593 207.108C56.1055 207.221 56.1413 207.313 56.167 207.313C56.1926 207.313 56.2029 207.195 56.1413 207.067C56.0798 206.939 55.9875 206.878 55.9722 206.893Z" fill="#263238"/>
<path d="M55.4136 206.226C55.4136 206.226 55.4443 206.318 55.5264 206.395C55.6084 206.472 55.6802 206.518 55.6955 206.503C55.7109 206.487 55.6648 206.405 55.5879 206.334C55.511 206.262 55.4341 206.205 55.4136 206.226Z" fill="#263238"/>
<path d="M54.6291 205.908C54.6291 205.908 54.7367 205.908 54.8444 205.964C54.9521 206.021 55.029 206.057 55.0495 206.041C55.07 206.026 55.0085 205.923 54.87 205.882C54.7316 205.841 54.624 205.908 54.6291 205.908Z" fill="#263238"/>
<path d="M54.0754 205.79C54.0754 205.79 54.1062 205.852 54.1677 205.872C54.2292 205.893 54.2856 205.898 54.2959 205.872C54.3061 205.847 54.26 205.811 54.1985 205.79C54.137 205.77 54.0806 205.765 54.0754 205.79Z" fill="#263238"/>
<path d="M35.1993 204.509L37.7011 201.469L32.031 196.747L28.3296 201.156L28.6577 201.474C30.1495 202.863 36.3476 208.431 37.6498 208.984C39.1109 209.605 35.1993 204.509 35.1993 204.509Z" fill="#5DA9E7"/>
<g opacity="0.5">
<path d="M30.4366 202.832C30.7503 202.284 30.8507 201.64 30.7186 201.023C30.5929 200.412 30.2413 199.872 29.7343 199.51L28.386 201.084L30.4366 202.832Z" fill="white"/>
</g>
<g opacity="0.4">
<path d="M37.0397 207.082C37.0397 207.082 38.3214 208.974 37.8805 209.077C37.4396 209.179 30.9493 203.786 28.3296 201.156L28.4424 201.038L35.9324 207.395C35.9324 207.395 36.6962 206.821 37.0397 207.082Z" fill="white"/>
</g>
<path d="M28.3552 200.961L28.4424 201.053L28.709 201.304L29.7035 202.207C30.5443 202.96 31.7234 203.991 33.0512 205.098C34.379 206.205 35.6145 207.185 36.4963 207.882L37.5627 208.697L37.8549 208.912L37.9625 208.984L37.8651 208.897L37.5832 208.666L36.5578 207.831C35.6709 207.123 34.4559 206.139 33.1281 205.031C31.8003 203.924 30.6161 202.904 29.765 202.161L28.7397 201.279L28.4629 201.038L28.3552 200.961Z" fill="#263238"/>
<path d="M35.8555 207.482C36.0423 207.346 36.2456 207.234 36.4604 207.149C36.6821 207.093 36.9087 207.058 37.1371 207.046C36.9088 206.962 36.658 206.962 36.4297 207.046C36.1918 207.117 35.9878 207.272 35.8555 207.482Z" fill="#263238"/>
<path d="M34.8916 205.237C34.8916 205.262 35.0608 205.237 35.2505 205.17C35.4401 205.103 35.5939 205.042 35.5837 205.016C35.5734 204.99 35.4145 205.016 35.2248 205.083C35.104 205.11 34.9903 205.162 34.8916 205.237Z" fill="#263238"/>
<path d="M34.6353 204.611C34.6353 204.611 34.7737 204.652 34.948 204.647C35.1223 204.642 35.2556 204.616 35.2556 204.591C35.2556 204.565 35.112 204.55 34.9429 204.555C34.8373 204.55 34.7321 204.569 34.6353 204.611Z" fill="#263238"/>
<path d="M34.7891 203.857C34.7891 203.857 34.8916 204.001 35.0556 204.139C35.1482 204.233 35.2578 204.308 35.3786 204.36C35.3786 204.36 35.2761 204.211 35.112 204.073C34.948 203.934 34.8096 203.816 34.7891 203.857Z" fill="#263238"/>
<path d="M35.0044 203.376C35.0602 203.516 35.1453 203.643 35.254 203.749C35.3627 203.854 35.4926 203.935 35.635 203.986C35.5357 203.878 35.4295 203.777 35.3171 203.683C35.1479 203.519 35.0505 203.345 35.0044 203.376Z" fill="#263238"/>
<path d="M35.4966 204.883C35.5983 205.006 35.7217 205.108 35.8606 205.186C36.006 205.28 36.1606 205.359 36.322 205.421C36.4173 205.465 36.517 205.497 36.6193 205.519C36.6838 205.53 36.75 205.515 36.8039 205.478C36.8321 205.456 36.8535 205.427 36.8653 205.393C36.8771 205.359 36.8789 205.323 36.8705 205.288C36.7914 205.101 36.6492 204.947 36.4684 204.853C36.2877 204.759 36.0799 204.732 35.8811 204.776C35.764 204.799 35.6536 204.848 35.5581 204.919C35.5222 204.942 35.4909 204.972 35.4658 205.006C35.5972 204.926 35.741 204.869 35.8913 204.837C36.054 204.809 36.2214 204.829 36.3732 204.893C36.556 204.964 36.7033 205.104 36.7834 205.283C36.7834 205.375 36.727 205.427 36.6296 205.411C36.535 205.39 36.4424 205.361 36.3527 205.324C36.1948 205.265 36.0421 205.193 35.8965 205.109C35.6453 205.011 35.5068 204.883 35.4966 204.883Z" fill="#263238"/>
<path d="M35.5632 205.001C35.5632 205.001 35.6965 204.96 35.8195 204.786C35.8856 204.68 35.9276 204.561 35.9426 204.437C35.9543 204.357 35.947 204.275 35.9211 204.199C35.8953 204.122 35.8517 204.053 35.7939 203.996C35.7497 203.972 35.6979 203.967 35.6499 203.982C35.6018 203.996 35.5615 204.029 35.5376 204.073C35.4986 204.137 35.4741 204.209 35.4658 204.283C35.4508 204.404 35.4508 204.526 35.4658 204.647C35.4658 204.76 35.494 204.871 35.5478 204.97C35.5478 204.97 35.5478 204.842 35.5478 204.647C35.5464 204.53 35.5567 204.413 35.5786 204.299C35.5786 204.181 35.6709 204.017 35.7785 204.073C35.8862 204.129 35.8913 204.309 35.8913 204.427C35.8822 204.54 35.849 204.65 35.7939 204.75C35.7266 204.842 35.6492 204.926 35.5632 205.001Z" fill="#263238"/>
<path d="M29.7651 199.51C29.7651 199.51 29.9394 199.628 30.1701 199.869C30.4704 200.187 30.6778 200.58 30.77 201.007C30.8549 201.436 30.8194 201.879 30.6674 202.289C30.5495 202.607 30.4213 202.776 30.4367 202.802C30.4753 202.768 30.5081 202.728 30.5341 202.684C30.6105 202.573 30.6742 202.455 30.7238 202.33C30.901 201.913 30.9475 201.451 30.8571 201.007C30.7646 200.564 30.5414 200.159 30.2163 199.843C30.1194 199.749 30.0129 199.665 29.8984 199.592C29.8597 199.557 29.8144 199.529 29.7651 199.51Z" fill="#263238"/>
<path d="M32.3182 197.639C31.9541 197.992 31.6117 198.367 31.2929 198.761C30.9545 199.137 30.6362 199.531 30.3394 199.941C30.7058 199.591 31.0484 199.218 31.3647 198.823C31.7025 198.445 32.0208 198.049 32.3182 197.639Z" fill="#263238"/>
<path d="M31.5901 202.868C31.8092 203.156 32.0642 203.414 32.3488 203.637C32.615 203.885 32.9133 204.095 33.2357 204.263C33.2357 204.263 32.8615 203.955 32.4103 203.571C31.9592 203.186 31.6106 202.832 31.5901 202.868Z" fill="#263238"/>
<path d="M30.4826 201.94C30.4826 201.94 30.4467 202.043 30.416 202.161C30.3852 202.278 30.3391 202.366 30.3596 202.381C30.3801 202.396 30.4621 202.319 30.5031 202.181C30.5441 202.043 30.5082 201.935 30.4826 201.94Z" fill="#263238"/>
<path d="M30.4981 201.069C30.4724 201.069 30.4622 201.161 30.4724 201.269C30.4827 201.376 30.5083 201.464 30.534 201.464C30.5596 201.464 30.5698 201.371 30.534 201.264C30.4981 201.156 30.5237 201.069 30.4981 201.069Z" fill="#263238"/>
<path d="M30.0984 200.331C30.0984 200.356 30.165 200.418 30.2214 200.515C30.2778 200.613 30.3035 200.71 30.3291 200.71C30.3547 200.71 30.3701 200.592 30.2983 200.469C30.2266 200.346 30.1086 200.31 30.0984 200.331Z" fill="#263238"/>
<path d="M29.7651 199.864C29.7651 199.864 29.7651 199.936 29.7651 199.992C29.7651 200.049 29.842 200.084 29.8625 200.074C29.883 200.064 29.8625 200.002 29.8625 199.946C29.8625 199.89 29.7856 199.854 29.7651 199.864Z" fill="#263238"/>
<path d="M50.5433 122.134C50.5433 122.134 48.0877 132.521 48.7849 134.576C49.4821 136.632 53.9782 137.816 53.9782 137.816L53.8244 166.264L28.95 197.024L38.1266 204.529C38.1266 204.529 65.0619 173.723 67.4356 168.13C69.8092 162.537 65.8976 121.657 65.8976 121.657L50.5433 122.134Z" fill="#263238"/>
<path d="M63.247 117.899L64.462 204.293L51.8146 204.37L45.4627 133.992C44.1196 132.71 42.2278 130.516 42.4893 125.62L42.7969 119.935L63.247 117.899Z" fill="#263238"/>
<path d="M49.9177 171.073C49.9362 171.027 49.9603 170.984 49.9895 170.945C50.0561 170.853 50.133 170.735 50.2304 170.591L51.1686 169.263L54.6035 164.506V164.572C54.3266 161.573 53.9934 157.939 53.6345 154.017C53.1731 148.89 52.804 144.225 52.5836 140.846C52.4708 139.16 52.399 137.796 52.358 136.853C52.358 136.402 52.3272 136.038 52.3221 135.761C52.3065 135.635 52.3065 135.507 52.3221 135.381C52.3469 135.506 52.3623 135.633 52.3683 135.761C52.3683 136.032 52.4195 136.396 52.4554 136.848C52.5323 137.817 52.6348 139.17 52.7681 140.836C53.0347 144.204 53.4346 148.854 53.896 153.991C54.2395 157.928 54.5881 161.558 54.8188 164.572V164.608V164.639L51.307 169.335L50.3176 170.632L50.051 170.965C49.9434 171.047 49.9177 171.078 49.9177 171.073Z" fill="#455A64"/>
<path d="M53.7935 135.381C52.6618 135.321 51.5387 135.149 50.4407 134.869C49.3237 134.68 48.2281 134.381 47.1699 133.977C48.2906 134.12 49.4016 134.331 50.4971 134.607C51.6098 134.802 52.7104 135.061 53.7935 135.381Z" fill="#455A64"/>
<path d="M62.4576 164.895C61.3659 164.442 60.2169 164.142 59.0432 164.003C57.8607 163.955 56.6773 164.071 55.5264 164.346C55.827 164.157 56.1611 164.026 56.5107 163.962C57.3465 163.744 58.213 163.668 59.074 163.736C59.9296 163.805 60.768 164.015 61.5553 164.357C61.8859 164.481 62.1915 164.663 62.4576 164.895Z" fill="#455A64"/>
<path d="M66.9227 168.884C66.9791 168.93 63.4213 173.708 58.9713 179.552C54.5214 185.397 50.8661 190.108 50.8097 190.067C50.7534 190.026 54.3112 185.243 58.7611 179.393C63.2111 173.544 66.8663 168.837 66.9227 168.884Z" fill="#455A64"/>
<path d="M65.2105 124.313C65.0647 124.687 64.8181 125.013 64.4979 125.256C64.1316 125.577 63.7028 125.819 63.2386 125.966C62.7744 126.113 62.2848 126.163 61.8004 126.112C61.3161 126.061 60.8476 125.91 60.4243 125.669C60.0009 125.428 59.632 125.103 59.3405 124.713C59.0692 124.413 58.8911 124.04 58.8279 123.641C59.0252 123.969 59.2409 124.286 59.4738 124.59C60.0598 125.3 60.9012 125.751 61.8169 125.847C62.7327 125.943 63.6494 125.676 64.3698 125.102C64.6636 124.854 64.9443 124.59 65.2105 124.313Z" fill="#455A64"/>
<path d="M47.9184 79.8594C45.8344 77.8793 44.6055 75.1639 44.4935 72.2913C44.3815 69.4188 45.3951 66.6159 47.3186 64.4795" fill="#263238"/>
<path d="M40.8077 87.9189C40.8077 87.9189 38.0598 91.0257 37.4907 102.904C37.4907 102.904 45.3191 104.391 45.4626 103.965C45.6062 103.54 40.8077 87.9189 40.8077 87.9189Z" fill="#A8BC35"/>
<g opacity="0.3">
<path d="M40.8077 87.9189C40.8077 87.9189 38.0598 91.0257 37.4907 102.904C37.4907 102.904 45.3191 104.391 45.4626 103.965C45.6062 103.54 40.8077 87.9189 40.8077 87.9189Z" fill="black"/>
</g>
<path d="M42.0792 122.518H66.118L65.7284 118.76C65.7284 118.76 62.9805 104.478 63.001 104.288L63.4316 103.38C63.9933 102.202 64.2937 100.917 64.3123 99.6114C64.3309 98.3062 64.0672 97.0125 63.5393 95.8187L75.3305 91.7943L72.4494 82.0845C67.1074 82.9816 59.033 83.9916 59.033 83.9916L57.8334 84.089C57.8334 84.089 49.4975 84.5248 49.318 84.5453C45.8319 84.9708 41.7767 85.2373 40.2951 88.9695C39.5005 90.9638 40.2541 93.9577 41.5512 97.044L44.6272 106.528C45.8575 111.742 43.894 111.491 42.8123 116.74C42.638 117.53 42.0638 121.79 42.0792 122.518Z" fill="#A8BC35"/>
<path d="M75.1971 91.9536C75.0346 92.0451 74.8627 92.119 74.6845 92.1741C74.3461 92.2971 73.8488 92.4663 73.2336 92.6867C72.0033 93.102 70.291 93.6505 68.4044 94.2555C66.5178 94.8604 64.8157 95.4602 63.6366 95.9524C63.0317 96.1985 62.5549 96.4138 62.2216 96.5573C62.06 96.6468 61.8878 96.7157 61.709 96.7624C61.8579 96.644 62.0195 96.5425 62.1909 96.4599C62.5139 96.2907 62.9804 96.0447 63.5751 95.7781C65.1292 95.1008 66.7191 94.5086 68.3377 94.0043C70.2294 93.3993 71.9264 92.8764 73.1926 92.5073C73.813 92.3227 74.3205 92.1792 74.6691 92.0818C74.8391 92.0172 75.0165 91.9742 75.1971 91.9536Z" fill="#263238"/>
<path d="M73.8029 86.7808C73.8029 86.8525 66.6923 86.914 57.9104 86.914C49.1285 86.914 42.0178 86.8525 42.0178 86.7808C42.0178 86.709 49.1233 86.6475 57.9104 86.6475C66.6974 86.6475 73.8029 86.709 73.8029 86.7808Z" fill="#FAFAFA"/>
<path d="M74.5256 91.5024C74.5256 91.5742 66.6152 91.6357 56.8592 91.6357C47.1033 91.6357 39.198 91.5742 39.198 91.5024C39.198 91.4307 47.1033 91.3691 56.8592 91.3691C66.6152 91.3691 74.5256 91.4307 74.5256 91.5024Z" fill="#FAFAFA"/>
<path d="M41.2027 96.8752C40.7221 97.0056 40.2224 97.0507 39.7262 97.0085C39.2318 97.0505 38.7338 97.0054 38.2549 96.8752C38.7338 96.745 39.2318 96.6999 39.7262 96.7419C40.2224 96.6997 40.7221 96.7448 41.2027 96.8752Z" fill="#FAFAFA"/>
<path d="M64.2725 97.0391C64.2725 97.1108 59.0997 97.1723 52.7222 97.1723C46.3446 97.1723 41.1719 97.1108 41.1719 97.0391C41.1719 96.9673 46.3395 96.9058 52.7222 96.9058C59.1048 96.9058 64.2725 96.9622 64.2725 97.0391Z" fill="#FAFAFA"/>
<path d="M63.7597 102.571C63.7597 102.648 59.115 102.704 53.3936 102.704C47.6723 102.704 43.0225 102.648 43.0225 102.571C43.0225 102.494 47.6621 102.438 53.3936 102.438C59.1252 102.438 63.7597 102.499 63.7597 102.571Z" fill="#FAFAFA"/>
<path d="M63.616 107.703C63.616 107.774 59.4122 107.836 54.224 107.836C49.0359 107.836 44.8218 107.774 44.8218 107.703C44.8218 107.631 49.0307 107.569 54.224 107.569C59.4173 107.569 63.616 107.626 63.616 107.703Z" fill="#FAFAFA"/>
<path d="M64.4414 111.85C64.4414 111.927 59.9402 111.983 54.388 111.983C48.8359 111.983 44.3347 111.927 44.3347 111.85C44.3347 111.773 48.8359 111.717 54.388 111.717C59.9402 111.717 64.4414 111.778 64.4414 111.85Z" fill="#FAFAFA"/>
<path d="M65.7437 117.141C65.7437 117.218 60.617 117.274 54.3062 117.274C47.9953 117.274 42.8687 117.218 42.8687 117.141C42.8687 117.064 47.9953 117.007 54.3062 117.007C60.617 117.007 65.7437 117.069 65.7437 117.141Z" fill="#FAFAFA"/>
<path d="M44.4682 106.082C44.3715 105.938 44.2987 105.779 44.2529 105.611L43.7403 104.298C43.3147 103.191 42.7149 101.663 42.0997 99.9561C41.4845 98.249 40.9668 96.6905 40.6438 95.5472C40.4848 94.9731 40.3618 94.5219 40.2952 94.1836C40.2458 94.0167 40.2166 93.8446 40.208 93.6709C40.4452 94.2662 40.6506 94.8737 40.8232 95.4908C41.1923 96.6187 41.7306 98.167 42.3612 99.869C42.9918 101.571 43.5454 103.109 43.8992 104.237C44.0889 104.801 44.2324 105.262 44.3247 105.58C44.3938 105.741 44.442 105.91 44.4682 106.082Z" fill="#263238"/>
</svg>
