<svg width="222" height="208" viewBox="0 0 222 208" fill="none" xmlns="http://www.w3.org/2000/svg">
<path d="M2.58203 195.091V207.959H5.55035C5.39471 206.605 5.39471 205.237 5.55035 203.883C5.83232 202.371 9.05696 198.464 8.95956 195.111L2.58203 195.091Z" fill="#EBEBEB"/>
<path d="M26.3286 195.091V207.959H29.2969C29.1413 206.605 29.1413 205.237 29.2969 203.883C29.5789 202.371 32.8035 198.464 32.7061 195.111L26.3286 195.091Z" fill="#E0E0E0"/>
<path d="M49.5728 195.091V207.959H46.5994C46.7522 206.604 46.7522 205.237 46.5994 203.883C46.3123 202.371 43.0928 198.464 43.1851 195.111L49.5728 195.091Z" fill="#EBEBEB"/>
<path d="M70.1204 195.091V207.959H67.1521C67.305 206.604 67.305 205.237 67.1521 203.883C66.8701 202.371 63.6455 198.464 63.7429 195.111L70.1204 195.091Z" fill="#E0E0E0"/>
<path d="M71.6786 131.639H0.562012V195.501H71.6786V131.639Z" fill="#F5F5F5"/>
<path d="M52.5205 131.639L53.0486 195.501H71.6787V131.639H52.5205Z" fill="#E0E0E0"/>
<path d="M49.4188 136.34H3.76099V152.591H49.4188V136.34Z" fill="#EBEBEB"/>
<path d="M49.4188 155.826H3.76099V172.078H49.4188V155.826Z" fill="#EBEBEB"/>
<path d="M49.4188 175.317H3.76099V191.569H49.4188V175.317Z" fill="#EBEBEB"/>
<path d="M21.2635 113.291L19.2949 131.567H44.5282L46.6199 113.291H21.2635Z" fill="#E0E0E0"/>
<path d="M22.3041 114.603L20.3867 130.593H43.1592L44.9997 114.603H22.3041Z" fill="white"/>
<path d="M26.1337 117.294L24.9546 127.907H39.3245L40.0628 117.294H26.1337Z" fill="#EBEBEB"/>
<path d="M45.7177 121.16L50.9315 131.639L44.5283 131.567L45.7177 121.16Z" fill="#EBEBEB"/>
<path d="M28.261 145.311C28.262 145.642 28.1649 145.966 27.9818 146.241C27.7988 146.517 27.5382 146.732 27.2329 146.859C26.9276 146.986 26.5914 147.02 26.2668 146.956C25.9423 146.892 25.644 146.733 25.4098 146.5C25.1755 146.266 25.0159 145.969 24.9509 145.644C24.886 145.32 24.9188 144.984 25.0452 144.678C25.1715 144.372 25.3857 144.111 25.6607 143.927C25.9356 143.743 26.259 143.645 26.5897 143.645C27.0321 143.645 27.4564 143.82 27.7697 144.133C28.083 144.445 28.2597 144.869 28.261 145.311Z" fill="#E0E0E0"/>
<path d="M28.261 164.997C28.261 165.328 28.163 165.651 27.9794 165.926C27.7957 166.201 27.5347 166.415 27.2293 166.542C26.9239 166.668 26.5879 166.701 26.2637 166.637C25.9395 166.572 25.6417 166.413 25.408 166.179C25.1742 165.945 25.0151 165.648 24.9506 165.324C24.8861 164.999 24.9192 164.663 25.0457 164.358C25.1722 164.053 25.3864 163.791 25.6612 163.608C25.9361 163.424 26.2592 163.326 26.5897 163.326C26.8094 163.326 27.027 163.368 27.2301 163.452C27.4332 163.536 27.6177 163.659 27.773 163.814C27.9284 163.969 28.0514 164.154 28.1352 164.357C28.2189 164.56 28.2617 164.778 28.261 164.997Z" fill="#E0E0E0"/>
<path d="M28.261 184.679C28.261 185.009 28.163 185.332 27.9794 185.607C27.7957 185.882 27.5347 186.096 27.2293 186.223C26.9239 186.349 26.5879 186.382 26.2637 186.318C25.9395 186.253 25.6417 186.094 25.408 185.86C25.1742 185.627 25.0151 185.329 24.9506 185.005C24.8861 184.68 24.9192 184.344 25.0457 184.039C25.1722 183.734 25.3864 183.473 25.6612 183.289C25.9361 183.105 26.2592 183.007 26.5897 183.007C27.033 183.007 27.4581 183.183 27.7715 183.497C28.0849 183.81 28.261 184.235 28.261 184.679Z" fill="#E0E0E0"/>
<path d="M183.229 173.764C183.08 174.215 188.356 194.271 188.356 194.271L191.975 193.517L186.997 173.764H183.229Z" fill="#EBEBEB"/>
<path d="M211.277 170.898L204.038 194.271H208.262L215.199 172.559L211.277 170.898Z" fill="#F5F5F5"/>
<path d="M217.911 167.279L209.616 194.271H213.84L221.832 168.94L217.911 167.279Z" fill="#EBEBEB"/>
<path d="M185.792 192.615L190.017 207.241H211.277L215.199 192.615H185.792Z" fill="#E0E0E0"/>
<path d="M196.758 192.615C196.74 192.565 196.724 192.513 196.712 192.461L196.599 192.015C196.502 191.605 196.369 191.026 196.194 190.287L194.733 183.9L189.96 162.598L190.088 162.706H186.366L186.495 162.542C188.386 170.924 190.083 178.435 191.298 183.859C191.893 186.56 192.375 188.739 192.713 190.267C192.867 191.01 192.995 191.589 193.082 192.005C193.118 192.194 193.149 192.343 193.169 192.456C193.178 192.509 193.178 192.562 193.169 192.615C193.151 192.565 193.136 192.513 193.123 192.461C193.093 192.348 193.057 192.2 193.011 192.015C192.908 191.605 192.77 191.026 192.59 190.287C192.236 188.749 191.729 186.591 191.098 183.9C189.853 178.476 188.135 170.975 186.218 162.598L186.177 162.439H190.176L190.201 162.542C192.042 170.924 193.698 178.435 194.892 183.859C195.471 186.56 195.943 188.739 196.271 190.267C196.425 191.01 196.543 191.589 196.63 192.005L196.717 192.456C196.739 192.506 196.753 192.56 196.758 192.615Z" fill="#E0E0E0"/>
<path d="M217.537 207.851C217.537 207.923 168.864 207.984 108.852 207.984C48.8397 207.984 0.16748 207.923 0.16748 207.851C0.16748 207.779 48.8294 207.718 108.878 207.718C168.926 207.718 217.537 207.779 217.537 207.851Z" fill="#263238"/>
<path d="M203.541 67.9248C203.424 67.8753 203.302 67.8375 203.177 67.812C202.811 67.7295 202.431 67.7295 202.065 67.812C201.471 67.9647 200.919 68.2484 200.45 68.6425C199.811 69.1952 199.258 69.8397 198.809 70.5547C197.758 72.1645 196.933 74.3894 195.969 76.9835C194.854 79.9457 193.889 82.9623 193.078 86.0218C192.927 86.304 192.725 86.556 192.483 86.7651C192.358 86.8789 192.21 86.9644 192.049 87.0157C191.888 87.067 191.718 87.083 191.55 87.0625C191.221 86.9787 190.923 86.8005 190.694 86.5498C190.453 86.3293 190.227 86.0935 190.002 85.8526C189.556 85.3631 189.082 84.9009 188.582 84.4684C188.098 84.0028 187.454 83.7405 186.782 83.7353C186.446 83.7926 186.126 83.9198 185.843 84.1088C185.559 84.2978 185.319 84.5444 185.136 84.8324C184.773 85.4552 184.576 86.1618 184.567 86.883C184.48 88.3492 184.906 89.8308 185.162 91.3637C185.418 92.8966 185.741 94.4704 186.039 96.0751C186.193 96.88 186.341 97.69 186.495 98.5102L186.726 99.7509C186.796 99.9675 186.819 100.197 186.794 100.423C186.768 100.65 186.694 100.868 186.577 101.063C186.5 101.166 186.394 101.243 186.272 101.284C186.15 101.326 186.019 101.329 185.895 101.294C185.674 101.23 185.467 101.123 185.285 100.981L184.26 100.202C183.562 99.6747 182.836 99.1853 182.086 98.7358C181.335 98.2684 180.515 97.9224 179.656 97.7105C179.231 97.6105 178.789 97.6105 178.364 97.7105C177.941 97.8174 177.568 98.0674 177.308 98.4179C176.815 99.1789 176.573 100.075 176.616 100.981C176.617 101.914 176.708 102.845 176.888 103.76C177.258 105.642 177.78 107.49 178.451 109.286C178.647 109.746 178.796 110.223 178.897 110.712C178.922 110.85 178.918 110.992 178.885 111.129C178.852 111.265 178.792 111.394 178.708 111.506C178.662 111.56 178.612 111.609 178.559 111.655C178.501 111.707 178.433 111.747 178.359 111.773C178.203 111.796 178.043 111.76 177.913 111.67C177.487 111.397 177.09 111.081 176.729 110.727L175.632 109.702C174.913 109.006 174.132 108.378 173.299 107.825C172.884 107.552 172.429 107.345 171.951 107.21C171.724 107.14 171.484 107.118 171.248 107.147C171.012 107.177 170.785 107.256 170.582 107.379C170.186 107.667 169.91 108.09 169.808 108.569C169.684 109.058 169.622 109.561 169.623 110.066C169.628 111.103 169.757 112.135 170.008 113.142C170.514 115.187 171.263 117.164 172.238 119.032C173.208 120.947 174.317 122.789 175.555 124.543C176.174 125.433 176.842 126.289 177.554 127.107C178.241 127.958 178.938 128.803 179.636 129.67V129.701L179.513 129.649L182.773 129.178C183.853 129.049 184.926 128.864 185.987 128.624C188.079 128.154 190.135 127.535 192.139 126.773C194.117 126.042 196.001 125.08 197.753 123.908C198.613 123.338 199.4 122.665 200.096 121.903C200.439 121.53 200.734 121.115 200.973 120.668C201.217 120.245 201.297 119.746 201.198 119.268C201.132 119.039 201.018 118.827 200.863 118.645C200.709 118.464 200.517 118.318 200.301 118.217C199.855 117.999 199.381 117.847 198.891 117.766C197.902 117.616 196.902 117.556 195.902 117.586H194.405C193.891 117.606 193.375 117.574 192.867 117.489C192.71 117.469 192.566 117.388 192.468 117.263C192.43 117.194 192.407 117.117 192.401 117.038C192.393 116.968 192.393 116.898 192.401 116.828C192.417 116.689 192.459 116.554 192.527 116.432C192.595 116.31 192.686 116.202 192.796 116.115C193.199 115.823 193.63 115.571 194.082 115.361C195.789 114.484 197.419 113.467 198.958 112.321C199.702 111.766 200.389 111.138 201.009 110.445C201.649 109.805 202.072 108.98 202.218 108.087C202.261 107.652 202.153 107.215 201.911 106.851C201.666 106.49 201.339 106.191 200.957 105.98C200.184 105.555 199.348 105.255 198.481 105.093C197.624 104.92 196.758 104.795 195.887 104.719L194.595 104.596C194.365 104.582 194.139 104.521 193.934 104.416C193.819 104.357 193.725 104.265 193.664 104.151C193.603 104.038 193.577 103.909 193.59 103.78C193.637 103.558 193.731 103.349 193.864 103.165C193.997 102.981 194.168 102.828 194.364 102.714L195.39 101.955L197.363 100.453L201.178 97.5567C202.403 96.598 203.71 95.788 204.633 94.6396C205.105 94.1028 205.43 93.4528 205.576 92.753C205.636 92.4167 205.624 92.0716 205.541 91.7403C205.458 91.409 205.306 91.099 205.094 90.8305C204.871 90.5832 204.581 90.4053 204.259 90.3179C203.937 90.2222 203.605 90.1671 203.269 90.1538C202.609 90.1365 201.948 90.1605 201.29 90.2256C200.962 90.2256 200.634 90.2717 200.311 90.2769C199.975 90.3021 199.638 90.229 199.342 90.0667C199.201 89.971 199.082 89.8458 198.993 89.6998C198.905 89.5538 198.849 89.3904 198.83 89.2208C198.792 88.9021 198.811 88.5792 198.886 88.2672C200.353 85.4872 201.68 82.6349 202.859 79.7211C203.885 77.1578 204.771 74.9534 205.089 73.0565C205.245 72.2285 205.279 71.3824 205.192 70.5445C205.125 69.9354 204.92 69.3496 204.592 68.8322C204.393 68.5156 204.123 68.2503 203.803 68.058C203.693 67.9913 203.578 67.9347 203.459 67.8889C203.583 67.9222 203.702 67.9723 203.813 68.0375C204.143 68.2261 204.424 68.4895 204.633 68.8065C204.968 69.3282 205.18 69.9188 205.253 70.5342C205.353 71.3793 205.327 72.2344 205.176 73.0719C204.869 74.9739 203.997 77.1732 202.977 79.7365C201.822 82.6837 200.518 85.5702 199.071 88.3851C199 88.6734 198.982 88.9723 199.019 89.2669C199.033 89.412 199.078 89.5524 199.151 89.6788C199.223 89.8052 199.322 89.9147 199.44 90C199.707 90.1416 200.01 90.2038 200.311 90.1794C200.629 90.1794 200.952 90.1487 201.28 90.1231C201.946 90.0559 202.616 90.0302 203.285 90.0462C203.632 90.0599 203.977 90.1168 204.31 90.2153C204.663 90.3092 204.982 90.4991 205.233 90.7639C205.456 91.0512 205.617 91.382 205.706 91.7351C205.794 92.0882 205.808 92.4559 205.746 92.8145C205.597 93.549 205.257 94.2315 204.761 94.7934C203.813 95.9725 202.495 96.7928 201.28 97.7566L197.471 100.658L195.503 102.155L194.503 102.919C194.334 103.032 194.181 103.166 194.047 103.319C193.923 103.465 193.842 103.643 193.811 103.832C193.802 103.917 193.819 104.003 193.86 104.078C193.901 104.153 193.965 104.214 194.041 104.252C194.223 104.34 194.42 104.39 194.621 104.401L195.913 104.524C196.791 104.598 197.664 104.723 198.527 104.898C199.424 105.063 200.289 105.37 201.091 105.805C201.499 106.041 201.85 106.365 202.116 106.754C202.383 107.162 202.506 107.647 202.464 108.133C202.312 109.078 201.87 109.952 201.198 110.635C200.561 111.339 199.857 111.979 199.096 112.547C197.548 113.704 195.907 114.733 194.19 115.623C193.754 115.821 193.338 116.061 192.949 116.341C192.864 116.406 192.793 116.488 192.74 116.581C192.688 116.674 192.654 116.777 192.642 116.884C192.637 116.935 192.637 116.987 192.642 117.038C192.642 117.079 192.642 117.176 192.678 117.171C192.744 117.23 192.826 117.268 192.914 117.279C193.395 117.357 193.882 117.387 194.37 117.371H195.866C196.882 117.334 197.898 117.394 198.901 117.551C199.419 117.631 199.92 117.792 200.388 118.027C200.635 118.146 200.855 118.315 201.032 118.525C201.208 118.734 201.339 118.979 201.414 119.242C201.53 119.781 201.442 120.344 201.167 120.821C200.92 121.288 200.613 121.72 200.255 122.108C199.546 122.887 198.743 123.576 197.866 124.159C196.099 125.348 194.195 126.32 192.196 127.055C190.176 127.826 188.103 128.449 185.993 128.921C184.928 129.163 183.852 129.348 182.768 129.475L179.502 129.952H179.425L179.379 129.89H179.354L177.272 127.327C176.56 126.508 175.891 125.652 175.268 124.764C174.02 122.997 172.903 121.141 171.925 119.212C170.945 117.323 170.193 115.325 169.685 113.26C169.425 112.239 169.293 111.19 169.29 110.137C169.291 109.609 169.356 109.082 169.485 108.569C169.606 108.031 169.92 107.557 170.367 107.236C170.6 107.091 170.862 106.998 171.134 106.963C171.406 106.928 171.683 106.951 171.946 107.031C172.447 107.173 172.925 107.391 173.361 107.677C174.208 108.237 175.001 108.875 175.729 109.584L176.826 110.609C177.175 110.948 177.556 111.252 177.964 111.516C178.038 111.569 178.125 111.598 178.216 111.599C178.216 111.599 178.292 111.552 178.328 111.527L178.441 111.414C178.503 111.327 178.547 111.229 178.57 111.125C178.593 111.021 178.594 110.914 178.574 110.809C178.477 110.339 178.333 109.881 178.144 109.44C177.47 107.63 176.945 105.768 176.575 103.873C176.393 102.942 176.302 101.996 176.303 101.048C176.263 100.089 176.525 99.1425 177.052 98.341C177.344 97.9519 177.76 97.6735 178.231 97.5515C178.691 97.444 179.17 97.444 179.63 97.5515C180.511 97.7599 181.354 98.1059 182.127 98.5769C182.887 99.0278 183.619 99.5225 184.321 100.058L185.347 100.838C185.499 100.961 185.673 101.057 185.859 101.12C185.942 101.144 186.03 101.142 186.112 101.115C186.193 101.087 186.264 101.035 186.316 100.966C186.417 100.813 186.475 100.636 186.485 100.453C186.49 100.249 186.468 100.046 186.418 99.8483C186.341 99.433 186.269 99.0229 186.193 98.6128C186.039 97.7925 185.89 96.9774 185.741 96.1776C185.449 94.5679 185.157 92.9991 184.875 91.4662C184.593 89.9334 184.198 88.4466 184.285 86.9343C184.301 86.1848 184.509 85.452 184.89 84.8067C185.088 84.4945 185.35 84.2279 185.658 84.0246C185.967 83.8213 186.315 83.686 186.68 83.6276C187.043 83.5978 187.407 83.6706 187.731 83.8378C188.045 83.9904 188.34 84.1816 188.607 84.4069C189.114 84.8449 189.594 85.3141 190.043 85.8116C190.261 86.0508 190.487 86.2815 190.719 86.5037C190.928 86.7247 191.194 86.8827 191.488 86.9599C191.633 86.9761 191.78 86.9612 191.919 86.9161C192.058 86.871 192.185 86.7968 192.293 86.6985C192.518 86.5048 192.705 86.272 192.847 86.0115C193.668 82.9469 194.647 79.9267 195.779 76.963C196.753 74.374 197.594 72.144 198.666 70.5342C199.124 69.8151 199.687 69.1688 200.337 68.6168C200.815 68.2206 201.378 67.9399 201.983 67.7966C202.353 67.7091 202.74 67.7091 203.11 67.7966C203.26 67.8145 203.406 67.8579 203.541 67.9248Z" fill="#263238"/>
<path d="M200.849 74.897C200.84 74.9555 200.823 75.0125 200.798 75.0662L200.624 75.5481C200.455 75.9838 200.219 76.6041 199.921 77.3885C199.296 79.0034 198.409 81.3155 197.312 84.1608L188.797 106.533C185.485 115.249 182.45 123.18 180.204 128.88C179.087 131.731 178.154 134.033 177.518 135.622C177.2 136.401 176.949 137.011 176.77 137.442C176.682 137.642 176.621 137.796 176.57 137.919L176.493 138.072C176.502 138.016 176.519 137.96 176.544 137.908C176.585 137.785 176.646 137.626 176.718 137.426C176.887 136.986 177.123 136.37 177.421 135.581C178.046 133.966 178.933 131.659 180.03 128.814L188.545 106.451C191.857 97.7105 194.887 89.8103 197.138 84.1095C198.255 81.2591 199.188 78.9521 199.824 77.368C200.142 76.5888 200.393 75.9736 200.572 75.5429C200.66 75.3481 200.721 75.1892 200.772 75.0713L200.849 74.897Z" fill="#263238"/>
<path d="M201.126 92.6094C200.721 92.8995 200.293 93.1551 199.845 93.3732L196.707 95.1163C195.477 95.7981 194.359 96.4082 193.534 96.8235C193.1 97.0697 192.641 97.2691 192.165 97.4182C192.573 97.1332 193.002 96.878 193.447 96.6543L196.574 94.8856C197.804 94.2038 198.927 93.6091 199.758 93.2041C200.194 92.9626 200.652 92.7635 201.126 92.6094Z" fill="#263238"/>
<path d="M191.749 97.0903C191.683 97.1211 190.463 94.7936 189.027 91.8919C187.592 88.9903 186.464 86.6115 186.541 86.5756C186.618 86.5397 187.828 88.8723 189.268 91.774C190.709 94.6757 191.816 97.0544 191.749 97.0903Z" fill="#263238"/>
<path d="M187.269 110.742C186.859 110.44 186.481 110.096 186.141 109.717C185.475 109.051 184.603 108.102 183.655 107.005C182.706 105.908 181.937 104.872 181.394 104.103C181.074 103.706 180.798 103.277 180.568 102.822C180.92 103.188 181.246 103.578 181.542 103.991C182.127 104.729 182.932 105.739 183.86 106.831C184.788 107.923 185.649 108.881 186.274 109.584C186.634 109.944 186.967 110.332 187.269 110.742Z" fill="#263238"/>
<path d="M196.645 108.538C196.208 108.713 195.755 108.847 195.292 108.938C194.451 109.148 193.282 109.42 191.99 109.707C190.699 109.994 189.519 110.22 188.668 110.404C188.211 110.519 187.744 110.59 187.274 110.614C187.712 110.441 188.165 110.309 188.627 110.22C189.468 110.009 190.637 109.707 191.934 109.445C193.231 109.184 194.4 108.933 195.251 108.753C195.708 108.639 196.175 108.567 196.645 108.538Z" fill="#263238"/>
<path d="M194.221 121.098C193.652 121.295 193.069 121.451 192.478 121.565C191.391 121.816 189.914 122.149 188.233 122.498C186.551 122.846 185.059 123.154 183.967 123.359C183.383 123.499 182.788 123.593 182.188 123.641C182.757 123.442 183.34 123.286 183.932 123.174C185.013 122.923 186.495 122.59 188.176 122.241C189.858 121.893 191.345 121.585 192.437 121.38C193.023 121.24 193.62 121.146 194.221 121.098Z" fill="#263238"/>
<path d="M182.455 123.498C182.312 123.399 182.183 123.281 182.071 123.149C181.835 122.913 181.507 122.565 181.102 122.124C180.297 121.242 179.215 119.996 178.077 118.576C176.939 117.156 175.96 115.823 175.278 114.844C174.934 114.357 174.668 113.957 174.488 113.675C174.381 113.536 174.295 113.382 174.232 113.219C174.36 113.336 174.474 113.469 174.57 113.613L175.432 114.736C176.149 115.685 177.149 116.992 178.287 118.407C179.425 119.822 180.476 121.088 181.245 121.996C181.681 122.469 182.085 122.971 182.455 123.498Z" fill="#263238"/>
<path d="M177.328 157.841C168.428 150.664 167.136 138.395 168.254 127.522C168.444 125.707 168.372 123.774 169.346 122.236C170.32 120.698 172.422 119.75 173.996 120.627C175.303 121.355 175.78 122.969 176.446 124.318C177.338 126.12 178.721 127.634 180.435 128.686C181.553 129.367 182.962 129.834 184.147 129.28C185.777 128.522 186.11 126.368 186.223 124.559L186.853 114.439C186.966 112.624 187.089 110.778 187.771 109.102C188.453 107.426 189.822 105.913 191.56 105.544C193.298 105.175 195.374 106.323 195.615 108.107C195.632 108.861 195.598 109.614 195.512 110.363C195.512 111.117 195.805 111.973 196.502 112.229C197.199 112.486 197.968 112.029 198.552 111.537C200.547 109.84 201.972 107.574 203.32 105.313C204.668 103.053 205.976 100.735 207.811 98.8589C209.646 96.9826 212.092 95.5625 214.696 95.5933C217.301 95.624 219.946 97.4132 220.428 100.002C220.91 102.591 219.244 105.088 217.48 107.041C214.862 109.945 211.836 112.454 208.498 114.49C207.847 114.784 207.307 115.28 206.96 115.905C206.483 117.084 207.545 118.361 208.708 118.843C210.026 119.381 211.502 119.355 212.902 119.606C214.301 119.858 215.788 120.596 216.229 121.965C216.844 123.867 215.163 125.697 213.553 126.866C210.345 129.198 206.761 130.963 202.956 132.085C201.587 132.479 200.157 132.807 199.019 133.669C197.881 134.53 197.122 136.114 197.686 137.432C198.25 138.749 199.885 139.277 201.275 139.113C202.664 138.949 203.987 138.278 205.35 137.867C207.914 137.098 211.102 137.493 212.528 139.749C213.476 141.236 213.435 143.209 212.789 144.876C212.069 146.493 211.031 147.951 209.739 149.161C205.473 153.626 200.099 156.878 194.164 158.584C188.258 160.189 182.885 160.363 177.287 157.872" fill="#5DA9E7"/>
<g opacity="0.1">
<path d="M177.328 157.841C168.428 150.664 167.136 138.395 168.254 127.522C168.444 125.707 168.372 123.774 169.346 122.236C170.32 120.698 172.422 119.75 173.996 120.627C175.303 121.355 175.78 122.969 176.446 124.318C177.338 126.12 178.721 127.634 180.435 128.686C181.553 129.367 182.962 129.834 184.147 129.28C185.777 128.522 186.11 126.368 186.223 124.559L186.853 114.439C186.966 112.624 187.089 110.778 187.771 109.102C188.453 107.426 189.822 105.913 191.56 105.544C193.298 105.175 195.374 106.323 195.615 108.107C195.632 108.861 195.598 109.614 195.512 110.363C195.512 111.117 195.805 111.973 196.502 112.229C197.199 112.486 197.968 112.029 198.552 111.537C200.547 109.84 201.972 107.574 203.32 105.313C204.668 103.053 205.976 100.735 207.811 98.8589C209.646 96.9826 212.092 95.5625 214.696 95.5933C217.301 95.624 219.946 97.4132 220.428 100.002C220.91 102.591 219.244 105.088 217.48 107.041C214.862 109.945 211.836 112.454 208.498 114.49C207.847 114.784 207.307 115.28 206.96 115.905C206.483 117.084 207.545 118.361 208.708 118.843C210.026 119.381 211.502 119.355 212.902 119.606C214.301 119.858 215.788 120.596 216.229 121.965C216.844 123.867 215.163 125.697 213.553 126.866C210.345 129.198 206.761 130.963 202.956 132.085C201.587 132.479 200.157 132.807 199.019 133.669C197.881 134.53 197.122 136.114 197.686 137.432C198.25 138.749 199.885 139.277 201.275 139.113C202.664 138.949 203.987 138.278 205.35 137.867C207.914 137.098 211.102 137.493 212.528 139.749C213.476 141.236 213.435 143.209 212.789 144.876C212.069 146.493 211.031 147.951 209.739 149.161C205.473 153.626 200.099 156.878 194.164 158.584C188.258 160.189 182.885 160.363 177.287 157.872" fill="black"/>
</g>
<path d="M176.631 165.921C177.485 160.902 178.817 155.977 180.609 151.212C182.827 145.4 185.375 139.719 188.243 134.197L190.473 129.84C191.211 128.409 191.939 126.994 192.739 125.651C194.278 123.08 195.957 120.595 197.768 118.207C199.485 115.916 201.193 113.803 202.807 111.84C204.422 109.876 205.971 108.082 207.447 106.503C209.766 104 212.279 101.684 214.963 99.577C215.911 98.8336 216.665 98.28 217.183 97.9109L217.772 97.4956C217.837 97.4461 217.906 97.4016 217.977 97.3623C217.923 97.4236 217.861 97.4771 217.793 97.5212L217.224 97.9672C216.711 98.3517 215.978 98.9208 215.045 99.6847C212.399 101.823 209.917 104.157 207.621 106.667C206.16 108.251 204.627 110.056 203.007 112.019C201.387 113.983 199.701 116.121 197.999 118.397C196.198 120.777 194.531 123.255 193.005 125.82C192.211 127.158 191.467 128.563 190.755 129.993L188.525 134.351C185.665 139.862 183.113 145.527 180.881 151.32C179.083 156.064 177.732 160.966 176.846 165.962" fill="#263238"/>
<path d="M192.837 125.635C192.764 125.379 192.721 125.116 192.708 124.851C192.652 124.338 192.585 123.61 192.519 122.698C192.39 120.883 192.293 118.361 192.196 115.587C192.098 112.814 191.965 110.296 191.806 108.482C191.729 107.579 191.663 106.846 191.606 106.339C191.56 106.076 191.545 105.81 191.56 105.544C191.643 105.796 191.702 106.055 191.734 106.318C191.827 106.831 191.934 107.554 192.042 108.461C192.262 110.271 192.432 112.788 192.555 115.572C192.678 118.355 192.724 120.791 192.78 122.687C192.816 123.544 192.842 124.261 192.867 124.841C192.882 125.106 192.872 125.372 192.837 125.635Z" fill="#263238"/>
<path d="M216.398 122.882C216.088 122.931 215.774 122.948 215.46 122.934C214.86 122.934 213.994 122.934 212.897 123.005C210.754 123.093 207.77 123.308 204.535 123.697C201.3 124.087 198.348 124.564 196.235 124.974C195.179 125.169 194.328 125.353 193.739 125.487C193.436 125.567 193.128 125.62 192.816 125.646C193.104 125.524 193.403 125.428 193.708 125.358C194.287 125.194 195.133 124.979 196.189 124.748C198.291 124.282 201.229 123.764 204.494 123.369C207.282 123.029 210.084 122.832 212.892 122.78C213.968 122.78 214.84 122.78 215.455 122.811C215.771 122.806 216.087 122.831 216.398 122.882Z" fill="#263238"/>
<path d="M180.927 150.792C180.867 150.702 180.82 150.604 180.789 150.5L180.445 149.628C180.153 148.875 179.758 147.767 179.292 146.399C178.354 143.656 177.175 139.826 175.929 135.586C174.683 131.347 173.545 127.507 172.663 124.749C172.233 123.406 171.874 122.303 171.612 121.483L171.33 120.596C171.29 120.494 171.264 120.387 171.253 120.278C171.312 120.369 171.358 120.468 171.392 120.571C171.484 120.806 171.597 121.083 171.73 121.442C172.022 122.196 172.417 123.303 172.889 124.672C173.827 127.415 175.006 131.244 176.247 135.489C177.487 139.734 178.636 143.563 179.518 146.322C179.948 147.665 180.302 148.767 180.543 149.587L180.825 150.474C180.874 150.575 180.908 150.682 180.927 150.792Z" fill="#263238"/>
<path d="M212.528 142.948C212.428 143.001 212.321 143.037 212.21 143.055L211.292 143.296L207.909 144.142C205.048 144.855 201.116 145.885 196.769 147.034C192.421 148.182 188.474 149.177 185.598 149.833C184.162 150.161 182.998 150.417 182.188 150.576L181.255 150.756C181.148 150.783 181.038 150.795 180.927 150.791C181.027 150.744 181.132 150.71 181.24 150.689L182.163 150.448L185.546 149.602C188.402 148.89 192.339 147.854 196.687 146.706C201.034 145.557 204.981 144.563 207.852 143.906C209.288 143.578 210.457 143.327 211.262 143.168L212.195 142.989C212.304 142.962 212.415 142.948 212.528 142.948Z" fill="#263238"/>
<path d="M179.4 16.3203H55.0737V186.678H179.4V16.3203Z" fill="#455A64"/>
<path d="M174.483 176.548H151.46H65.4297V23.2051H174.483V157.472V176.548Z" fill="#E0E0E0"/>
<path d="M172.761 173.703H149.942H64.686V21.1802H172.761V154.729V173.703Z" fill="#EBEBEB"/>
<path d="M161.149 161.835L148.701 171.97H62.6714V21.5649H171.725V153.258L161.149 161.835Z" fill="#FAFAFA"/>
<path d="M161.149 161.819C161.149 161.819 161.369 161.629 161.815 161.265L163.81 159.635L171.699 153.211V153.242C171.699 131.608 171.658 83.52 171.623 21.5493L171.74 21.6723H63.6352H62.6868L62.8201 21.5391C62.8201 78.0858 62.8201 130.249 62.7893 171.944L62.6868 171.837L148.717 171.898H148.686L158.037 164.316L160.38 162.424C160.893 162.004 161.164 161.799 161.164 161.799L160.395 162.439L158.052 164.382L148.732 172.001L62.6714 172.072H62.5637V171.965C62.5637 130.27 62.5637 78.1063 62.5381 21.5596V21.4263H63.6198H171.725H171.848V21.5442C171.812 83.5354 171.781 131.603 171.771 153.237L163.851 159.63L161.846 161.306L161.149 161.819Z" fill="#263238"/>
<path d="M102.485 11.0552H132.296C134.22 11.0552 136.065 11.8195 137.426 13.1799C138.786 14.5403 139.55 16.3854 139.55 18.3094V26.353H94.918V18.617C94.9193 16.611 95.7172 14.6876 97.1361 13.2697C98.555 11.8517 100.479 11.0552 102.485 11.0552Z" fill="#A8BC35"/>
<path d="M105.853 11.0551L104.223 2.80127H129.922L128.492 11.0551H105.853Z" fill="#A8BC35"/>
<path d="M92.4468 63.9007H74.0781V45.5269H92.4468V63.9007ZM74.5908 63.388H91.9342V46.0395H74.5908V63.388Z" fill="#A8BC35"/>
<path d="M157.376 49.9663C157.376 50.0381 144.585 50.0996 128.815 50.0996C113.046 50.0996 100.25 50.0381 100.25 49.9663C100.25 49.8945 113.035 49.833 128.815 49.833C144.595 49.833 157.376 49.8894 157.376 49.9663Z" fill="#263238"/>
<path d="M157.376 53.7803C157.376 53.8572 144.585 53.9136 128.815 53.9136C113.046 53.9136 100.25 53.8572 100.25 53.7803C100.25 53.7034 113.035 53.647 128.815 53.647C144.595 53.647 157.376 53.7085 157.376 53.7803Z" fill="#263238"/>
<path d="M157.376 57.6001C157.376 57.6719 144.585 57.7334 128.815 57.7334C113.046 57.7334 100.25 57.6719 100.25 57.6001C100.25 57.5283 113.035 57.4668 128.815 57.4668C144.595 57.4668 157.376 57.5283 157.376 57.6001Z" fill="#263238"/>
<path d="M157.376 61.4194C157.376 61.4912 144.585 61.5527 128.815 61.5527C113.046 61.5527 100.25 61.4912 100.25 61.4194C100.25 61.3477 113.035 61.2861 128.815 61.2861C144.595 61.2861 157.376 61.3374 157.376 61.4194Z" fill="#263238"/>
<path d="M92.4468 92.2147H74.0781V73.8408H92.4468V92.2147ZM74.5908 91.702H91.9342V74.3535H74.5908V91.702Z" fill="#A8BC35"/>
<path d="M157.376 78.2808C157.376 78.3525 144.585 78.414 128.815 78.414C113.046 78.414 100.25 78.3525 100.25 78.2808C100.25 78.209 113.035 78.1475 128.815 78.1475C144.595 78.1475 157.376 78.209 157.376 78.2808Z" fill="#263238"/>
<path d="M157.376 82.1001C157.376 82.1719 144.585 82.2334 128.815 82.2334C113.046 82.2334 100.25 82.1719 100.25 82.1001C100.25 82.0283 113.035 81.9668 128.815 81.9668C144.595 81.9668 157.376 82.0232 157.376 82.1001Z" fill="#263238"/>
<path d="M157.376 85.9141C157.376 85.991 144.585 86.0473 128.815 86.0473C113.046 86.0473 100.25 85.991 100.25 85.9141C100.25 85.8372 113.035 85.7808 128.815 85.7808C144.595 85.7808 157.376 85.8423 157.376 85.9141Z" fill="#263238"/>
<path d="M157.376 89.7339C157.376 89.8056 144.585 89.8672 128.815 89.8672C113.046 89.8672 100.25 89.8056 100.25 89.7339C100.25 89.6621 113.035 89.6006 128.815 89.6006C144.595 89.6006 157.376 89.6621 157.376 89.7339Z" fill="#263238"/>
<path d="M92.4468 119.617H74.0781V101.243H92.4468V119.617ZM74.5908 119.104H91.9342V101.756H74.5908V119.104Z" fill="#A8BC35"/>
<path d="M157.376 105.683C157.376 105.754 144.585 105.816 128.815 105.816C113.046 105.816 100.25 105.754 100.25 105.683C100.25 105.611 113.035 105.549 128.815 105.549C144.595 105.549 157.376 105.606 157.376 105.683Z" fill="#263238"/>
<path d="M157.376 109.497C157.376 109.573 144.585 109.63 128.815 109.63C113.046 109.63 100.25 109.573 100.25 109.497C100.25 109.42 113.035 109.363 128.815 109.363C144.595 109.363 157.376 109.425 157.376 109.497Z" fill="#263238"/>
<path d="M157.376 113.316C157.376 113.393 144.585 113.45 128.815 113.45C113.046 113.45 100.25 113.393 100.25 113.316C100.25 113.24 113.035 113.183 128.815 113.183C144.595 113.183 157.376 113.245 157.376 113.316Z" fill="#263238"/>
<path d="M157.376 117.135C157.376 117.207 144.585 117.269 128.815 117.269C113.046 117.269 100.25 117.207 100.25 117.135C100.25 117.063 113.035 117.002 128.815 117.002C144.595 117.002 157.376 117.063 157.376 117.135Z" fill="#263238"/>
<path d="M92.4468 146.075H74.0781V127.701H92.4468V146.075ZM74.5908 145.562H91.9342V128.214H74.5908V145.562Z" fill="#A8BC35"/>
<path d="M157.376 132.136C157.376 132.213 144.585 132.27 128.815 132.27C113.046 132.27 100.25 132.213 100.25 132.136C100.25 132.059 113.035 132.003 128.815 132.003C144.595 132.003 157.376 132.085 157.376 132.136Z" fill="#263238"/>
<path d="M157.376 135.955C157.376 136.027 144.585 136.088 128.815 136.088C113.046 136.088 100.25 136.027 100.25 135.955C100.25 135.883 113.035 135.822 128.815 135.822C144.595 135.822 157.376 135.883 157.376 135.955Z" fill="#263238"/>
<path d="M157.376 139.774C157.376 139.846 144.585 139.908 128.815 139.908C113.046 139.908 100.25 139.846 100.25 139.774C100.25 139.703 113.035 139.641 128.815 139.641C144.595 139.641 157.376 139.698 157.376 139.774Z" fill="#263238"/>
<path d="M157.376 143.589C157.376 143.666 144.585 143.722 128.815 143.722C113.046 143.722 100.25 143.666 100.25 143.589C100.25 143.512 113.035 143.456 128.815 143.456C144.595 143.456 157.376 143.517 157.376 143.589Z" fill="#263238"/>
<path d="M152.121 147.07L140.166 171.831H148.701L152.121 147.07Z" fill="#E0E0E0"/>
<path d="M148.702 171.97L152.121 147.208L171.725 153.258L148.702 171.97Z" fill="#FAFAFA"/>
<path d="M148.702 171.97L155.295 166.541L171.643 153.155L171.689 153.381L164.117 151.053L152.106 147.326L152.265 147.224C151.239 154.401 150.363 160.579 149.742 164.957C149.122 169.217 148.804 171.416 148.717 171.97C148.715 171.933 148.715 171.895 148.717 171.857L148.763 171.519C148.804 171.196 148.861 170.745 148.937 170.171C149.096 168.966 149.322 167.238 149.609 165.044C150.204 160.63 151.034 154.422 152.003 147.167V147.024L152.142 147.065L164.184 150.777L171.751 153.114L171.987 153.186L171.797 153.34C165.179 158.677 159.391 163.342 155.248 166.669L150.414 170.55L149.122 171.575L148.794 171.837L148.702 171.97Z" fill="#263238"/>
<g opacity="0.3">
<path d="M128.143 2.80127L126.729 11.0551H128.492L129.922 2.80127H127.672" fill="black"/>
</g>
</svg>
