<svg width="21" height="20" viewBox="0 0 21 20" fill="none" xmlns="http://www.w3.org/2000/svg">
<path d="M18.0625 4.98307C15.2875 4.70807 12.4958 4.56641 9.7125 4.56641C8.0625 4.56641 6.4125 4.64974 4.7625 4.81641L3.0625 4.98307" stroke="#E75D3B" stroke-width="1.25" stroke-linecap="round" stroke-linejoin="round"/>
<path d="M7.646 4.1415L7.82933 3.04984C7.96266 2.25817 8.06266 1.6665 9.471 1.6665H11.6543C13.0627 1.6665 13.171 2.2915 13.296 3.05817L13.4793 4.1415" stroke="#E75D3B" stroke-width="1.25" stroke-linecap="round" stroke-linejoin="round"/>
<path d="M16.2707 7.6167L15.729 16.0084C15.6373 17.3167 15.5623 18.3334 13.2373 18.3334H7.88734C5.56234 18.3334 5.48734 17.3167 5.39567 16.0084L4.854 7.6167" stroke="#E75D3B" stroke-width="1.25" stroke-linecap="round" stroke-linejoin="round"/>
<path d="M9.1709 13.75H11.9459" stroke="#E75D3B" stroke-width="1.25" stroke-linecap="round" stroke-linejoin="round"/>
<path d="M8.479 10.4165H12.6457" stroke="#E75D3B" stroke-width="1.25" stroke-linecap="round" stroke-linejoin="round"/>
</svg>
